<?xml version="1.0" encoding="utf-8"?>
<!-- Generator: Adobe Illustrator 25.4.1, SVG Export Plug-In . SVG Version: 6.00 Build 0)  -->
<svg version="1.1" id="レイヤー_1" xmlns="http://www.w3.org/2000/svg" xmlns:xlink="http://www.w3.org/1999/xlink" x="0px"
	 y="0px" viewBox="0 0 375 833" style="enable-background:new 0 0 375 833;" xml:space="preserve">
<style type="text/css">
	.st0{fill:#4B473B;}
	.st1{fill:#FFFFFF;}
	.st2{fill:none;stroke:#000000;stroke-width:0.99;stroke-miterlimit:10;}
	.st3{enable-background:new    ;}
</style>
<g>
	<g id="グループ_1" transform="translate(-440 287)">
		<rect id="長方形_31" x="440" y="-287.2" class="st0" width="375" height="52"/>
		<g id="レイヤー_2_00000088843192781785188130000007530241423135087502_" transform="translate(451.452 -276.438)">
			<g id="レイヤー_1_00000166651951764818984510000017820419076196279976_" transform="translate(0 0)">
				<path id="パス_1" class="st1" d="M2.5,2.6C2.7,2.9,2.5,3,2.5,3.3c0,0.2-0.1,0.5-0.2,0.8l0.4-0.2c0.5-0.2,0.8,0.3,0.8,0.9
					C3.5,6,3,8,2.6,8C2.5,8,2.4,8,2.4,7.9C2.3,7.6,2.1,7.4,1.8,7.1L1.9,7c0.5,0.4,0.5,0.4,0.6,0.3c0.4-0.8,0.6-1.8,0.6-2.7
					c0-0.2-0.1-0.3-0.3-0.3c-0.2,0-0.4,0.1-0.6,0.2C1.9,5.8,1.3,7.7,0.7,8.2c0,0-0.1,0-0.1-0.1c0-0.1-0.1-0.3,0-0.4
					C0.6,7.5,0.9,7.3,1,7c0.3-0.7,0.6-1.5,0.8-2.3C1.3,4.9,0.9,5.1,0.9,5.1c-0.1,0-0.1,0-0.2-0.1c0-0.1-0.2-0.4-0.3-0.6l0.1-0.1
					c0.1,0.1,0.3,0.2,0.4,0.2c0.4-0.1,0.7-0.2,1.1-0.4C2,3.8,2.1,3.4,2.1,3c0-0.3-0.1-0.6-0.3-0.9L1.9,2C2.2,2.2,2.4,2.4,2.5,2.6
					L2.5,2.6z M3.9,3.5C4.7,4,5.2,4.8,5.2,5.7c0,0.1-0.1,0.6-0.2,0.6c-0.1,0-0.2-0.1-0.2-0.1C4.6,5.9,4.3,5.8,4,5.8l0-0.1
					c0.2,0,0.5-0.1,0.7-0.1c0-0.8-0.3-1.5-0.9-2L3.9,3.5z"/>
				<path id="パス_2" class="st1" d="M8.3,6.4c0.5-0.6,0.9-1.2,1.2-2C9.2,4.5,8.9,4.6,8.7,4.7c-0.2,0.1-0.2,0-0.4-0.2L8,4.2
					l0.1-0.1l0.3,0.1c0.2,0.1,0.4,0.1,0.6,0C9.2,4.2,9.4,4.1,9.6,4c0.1-0.3,0.2-0.6,0.3-0.9c0.1-0.3,0-0.5-0.1-0.8l0.1-0.1
					c0.2,0.2,0.4,0.4,0.6,0.6c0,0.1,0,0.1-0.1,0.2c-0.1,0.2-0.2,0.5-0.3,0.7c0.2-0.1,0.3-0.1,0.5-0.2c0.1,0,0.1-0.1,0.2-0.1
					c0.1,0.1,0.2,0.1,0.2,0.2c0,0,0,0.1-0.2,0.2L10,4.2C9.7,5.1,9.2,5.9,8.7,6.7c-0.1,0.2-0.2,0.1-0.3,0C8.3,6.6,8.2,6.4,8.3,6.4z
					 M10.8,6.5c0-0.6,0-1.3,0.4-1.7l0.1,0.1c-0.3,0.4-0.2,0.9-0.1,1.6c0.5,0.1,0.9,0.3,1.3,0.6c0.1,0.1,0.2,0.4,0.2,0.5
					s-0.1,0.3-0.2,0.1c-0.4-0.4-0.8-0.6-1.3-0.8c0,0.7-0.3,1.1-0.7,1.2c-0.4,0.2-0.9,0-1.1-0.5c-0.2-0.4,0-0.9,0.4-1.1
					C10.1,6.5,10.4,6.4,10.8,6.5L10.8,6.5z M10.2,7.8c0.4,0,0.5-0.3,0.5-0.8V6.8c-0.3-0.1-0.7-0.1-0.9,0.1C9.6,7.3,9.7,7.8,10.2,7.8
					L10.2,7.8z M11.6,3.7c0.6,0.2,1.1,0.7,1.3,1.3c0,0.2-0.1,0.3-0.2,0.3c-0.1,0-0.2-0.1-0.2-0.1l0,0c-0.2-0.2-0.5-0.3-0.8-0.3
					l0-0.1c0.2-0.1,0.4-0.1,0.6,0c-0.2-0.3-0.5-0.6-0.7-0.8L11.6,3.7z"/>
				<path id="パス_3" class="st1" d="M21,5.3c-0.5,0.1-1,0.1-1.5,0.2c-0.8,0.1-1.6,0.3-2.5,0.4c-0.2,0-0.4,0.1-0.6,0.1
					c-0.2,0-0.3,0.1-0.5,0.1c-0.1,0-0.2-0.1-0.3-0.2c0-0.1,0.1-0.1,0.1-0.1c0.1,0,0.3,0,0.4-0.1c0.7-0.1,1.4-0.2,2-0.3V5
					c-0.3,0-0.5,0.1-0.8,0.1c-0.1,0-0.3,0.1-0.4,0.1S16.9,5.1,16.9,5S17,5,17.2,5c0.4-0.1,0.7-0.1,1.1-0.2V4.4
					c-0.2,0-0.3,0.1-0.7,0.1c-0.1,0-0.3,0-0.5,0.1c-0.1,0-0.2,0.1-0.3,0.1c-0.1,0-0.2-0.1-0.2-0.3c0-0.1,0.3-0.1,0.3-0.1
					c0.5-0.1,0.9-0.1,1.4-0.2V3.7c-0.5,0.1-1.1,0.2-1.6,0.3c-0.2,0-0.3,0.1-0.5,0.1c-0.2,0.1-0.4,0.1-0.6,0.1
					c-0.1,0-0.3-0.2-0.3-0.2c0-0.1,0.1-0.1,0.1-0.1c0.1,0,0.2,0,0.4,0c0.4,0,0.8-0.1,1.2-0.2s0.8-0.1,1.2-0.2h0V3.1l-0.7,0.1
					c-0.4,0.1-0.7,0.1-0.7,0.1c-0.1,0-0.2-0.1-0.2-0.2c0-0.1,0.1,0,0.2-0.1c0.1,0,0.2,0,0.3,0c0.4,0,0.9-0.1,1.3-0.2
					c0-0.2,0-0.4-0.1-0.6c0-0.1-0.1-0.1-0.1-0.2c0,0,0-0.1,0-0.1c0,0,0,0,0,0c0.1,0,0.4,0.3,0.4,0.3s0.2,0.1,0.2,0.2
					s-0.1,0.2-0.1,0.3v0c0.3,0,0.5-0.1,0.8-0.1c0.1,0,0.1-0.2,0.2-0.2c0.1,0,0.2,0.1,0.3,0.1c0.1,0.1,0.2,0.1,0.2,0.2
					c0,0.1-0.1,0.1-0.2,0.2c0,0.1,0,0.2,0,0.3l0.1,0c0.2,0,0.4-0.1,0.6-0.1c0.1,0,0.2-0.3,0.3-0.3s0.5,0.3,0.5,0.4s-0.1,0.1-0.2,0.1
					c-0.5,0.1-0.9,0.1-1.4,0.2h0v0.3C20,3.9,20.1,4,20.1,4.1S20,4.2,20,4.2c-0.1,0-0.3,0-0.4,0.1l-1,0.1v0.4c0.2,0,0.4-0.1,0.7-0.1
					c0.1,0,0.2-0.2,0.3-0.2S20,4.6,20,4.7s-0.1,0.1-0.1,0.1c-0.2,0-0.5,0.1-0.7,0.1C18.9,5,18.8,5,18.6,5v0.4c0.4-0.1,0.6-0.1,1-0.1
					c0.2,0,0.5-0.1,0.7-0.1c0.1,0,0.2-0.2,0.3-0.2s0.5,0.2,0.5,0.3S21.1,5.3,21,5.3z M17.4,8.2c-0.1,0-0.3-0.1-0.3-0.2
					c0-0.1,0-0.2,0.1-0.3c0-0.1,0-0.3,0-0.4c0-0.3,0-0.7,0-1c0-0.1-0.1-0.2-0.1-0.3c0,0,0-0.1,0.1-0.1c0.1,0.1,0.2,0.1,0.3,0.2
					c0.5-0.1,1-0.2,1.6-0.3c0.1,0,0.2,0,0.2-0.1c0.1,0,0.1-0.2,0.2-0.2s0.5,0.3,0.5,0.4s-0.2,0.2-0.2,0.2c0,0.2,0,0.4,0,0.5v1.3
					c0,0.1,0,0.2-0.1,0.2S19.3,8.1,19.3,8c0-0.1,0-0.3,0-0.4c0,0,0,0,0,0l-0.2,0c-0.5,0.1-1.1,0.1-1.6,0.2c0,0,0,0.1,0,0.1
					C17.5,8,17.5,8.2,17.4,8.2L17.4,8.2z M17.5,6.9c0.4,0,0.8-0.1,1.1-0.2c0.1,0,0.2-0.1,0.2-0.1c0.1,0,0.2,0.2,0.2,0.2
					c0,0.1-0.2,0.1-0.3,0.1c-0.4,0.1-0.9,0.1-1.3,0.2v0.5c0.4-0.1,0.8-0.1,1.1-0.2c0.1,0,0.5-0.1,0.6-0.1c0.1,0,0.1,0,0.2,0.1
					c0-0.4,0-0.7,0-1.1V6.1c-0.6,0.1-1.2,0.2-1.9,0.3C17.5,6.5,17.5,6.7,17.5,6.9L17.5,6.9z M19.5,4c0-0.1,0-0.3,0-0.4
					c-0.3,0-0.6,0.1-1,0.1v0.5L19.5,4z M18.6,3.1v0.3l1-0.1c0-0.1,0-0.3,0-0.4c-0.3,0.1-0.7,0.1-1,0.2C18.6,3.1,18.6,3.1,18.6,3.1
					L18.6,3.1z"/>
				<path id="パス_4" class="st1" d="M25,4.5c0,0.2,0,0.3,0,0.5c0,0.8,0,1.7,0,2.6c0,0.1,0,0.5-0.1,0.5s-0.4-0.1-0.4-0.3
					c0-0.2,0-0.4,0.1-0.5c0-0.4,0.1-0.8,0.1-1.3c0-0.3,0-0.7,0-1V4.3c-0.3,0.5-0.7,1-1.1,1.4c-0.1,0.1-0.2,0.2-0.3,0.2c0,0,0,0,0,0
					c0,0,0,0,0,0c0-0.1,0.1-0.2,0.2-0.3c0.6-0.8,1.1-1.6,1.4-2.5C25,2.9,25,2.7,25,2.6c0-0.1,0-0.2,0-0.3c0-0.1,0-0.1,0.1-0.1
					c0.1,0,0.5,0.4,0.5,0.5s-0.2,0.4-0.3,0.5c-0.1,0.2-0.2,0.5-0.4,0.7C25,4,25.1,4.1,25.1,4.2C25.1,4.3,25.1,4.4,25,4.5z M26.2,5.8
					c-0.3,0.3-0.6,0.6-0.9,0.8c-0.1,0-0.1,0.1-0.2,0.1c0,0-0.1,0-0.1-0.1s0.1-0.1,0.2-0.2C26,5.8,26.6,5,27,4c-0.1,0-0.3,0-0.4,0.1
					c-0.2,0-0.4,0.1-0.7,0.2c-0.1,0-0.2,0.1-0.3,0.1c-0.1,0-0.3-0.2-0.3-0.3C25.3,4,25.5,4,25.6,4c0.5-0.1,1.1-0.1,1.6-0.2V3.2
					c0-0.2,0-0.4,0-0.6c0-0.1,0-0.2-0.1-0.4C27,2.1,26.9,2,26.9,2c0,0,0.1-0.1,0.1-0.1C27.1,2,27.2,2,27.3,2.1
					c0.1,0.1,0.3,0.3,0.3,0.3c0,0.1,0,0.2-0.1,0.3c0,0.3-0.1,0.5-0.1,0.8v0.1c0.2,0,0.3-0.1,0.5-0.1c0.1,0,0.2,0,0.4-0.1
					c0.1-0.1,0.2-0.3,0.3-0.3s0.6,0.3,0.6,0.4S29,3.7,28.9,3.7c-0.5,0.1-0.9,0.1-1.4,0.2c0.3,0.5,0.7,1,1.1,1.4
					c0.2,0.2,0.5,0.4,0.8,0.5c0,0,0.3,0.1,0.3,0.2s-0.1,0.1-0.2,0.1c-0.2,0-0.3,0.1-0.5,0.2c-0.1,0-0.2,0.1-0.2,0.1
					c-0.1,0-0.1-0.1-0.2-0.2c-0.4-0.6-0.7-1.1-1.1-1.6c-0.1-0.1-0.2-0.3-0.3-0.4c0,0.4,0,0.8,0,1.3v0.7l0.2,0c0.1,0,0.2,0,0.2-0.1
					C28,6.1,28,6,28.1,6s0.5,0.2,0.5,0.3s-0.1,0.1-0.1,0.1l-0.5,0.1l-0.5,0.1v0.4c0,0.3,0,0.6,0,0.9c0,0.1,0,0.4-0.1,0.4
					C27.2,8.2,27,8.1,27,8c0-0.2,0.1-0.4,0.1-0.6c0-0.3,0-0.5,0-0.8c-0.2,0-0.4,0.1-0.6,0.1c-0.1,0-0.3,0.1-0.4,0.1
					s-0.2-0.2-0.2-0.3s0.1,0,0.1,0c0.1,0,0.3,0,0.4,0c0.2,0,0.4-0.1,0.7-0.1c0-0.6,0-1.4,0-1.8C26.9,4.9,26.6,5.4,26.2,5.8L26.2,5.8
					z"/>
				<path id="パス_5" class="st1" d="M4.2,17.6c-0.1,1.3-0.3,2.7-0.6,3.8C4.7,20.5,6.1,20,7.4,20c3.1,0,3.5,2.6,2.8,4.1
					c-0.9,1.9-3,3-6,3.1l-0.1-0.3c2.7-0.5,5.1-1.8,5.3-3.8c0.1-1.4-0.5-2.4-2.7-2.1c-1.4,0.1-2.6,0.9-3.2,2.2
					c-0.1,0.5-0.4,0.6-0.7,0.3l-0.3-0.2l0,0l0,0c-0.3-0.3,0.2-1.1,0.3-1.6c0.2-0.9,0.4-1.9,0.5-2.8l0.1-0.9
					c-0.6,0.2-1.2,0.3-1.6,0.4c-0.4,0.1-0.4,0-0.9-0.4c-0.3-0.3-0.5-0.6-0.8-0.9l0.2-0.2l0.7,0.4c0.5,0.2,1,0.1,1.5,0l1-0.2
					C3.4,15.9,3.5,15,3.5,14c0.1-0.7,0-1.4-0.4-2l0.2-0.2c0.6,0.4,1.1,0.9,1.5,1.4c0.1,0.3,0,0.3-0.2,0.6c-0.2,0.9-0.3,1.9-0.4,2.8
					c1.1-0.2,2.1-0.6,3.1-1.1c0.2-0.1,0.3-0.3,0.5-0.2c0.2,0.2,0.4,0.3,0.6,0.5c0.1,0.1,0.1,0.3-0.4,0.5C7.4,16.7,5.8,17.1,4.2,17.6
					z"/>
				<path id="パス_6" class="st1" d="M23.8,14.2c0.1,0.3-0.2,0.3-0.3,0.6c-0.6,1.3-1.7,4.1-2.7,6.7c0.5-0.5,1.2-0.8,2-0.8
					c0.6,0.1,1.3,0.5,1.4,2.6c0.1,1.6,0.4,2.3,1,2.3c1.2,0,2.9-2.1,3.5-5.3l0.5,0.1c-0.3,2.8-1.7,6.2-4.3,6.2
					c-0.9,0-1.7-0.5-1.9-3.1c-0.1-1.6-0.3-2-0.5-2c-1,0.1-1.9,0.7-2.4,1.6c-0.4,1-0.7,1.9-0.9,2.5c-0.3,0.7-0.1,0.9-0.3,1.5
					c-0.1,0.4-0.4,0.5-1-0.2s-0.5-0.8-0.2-1.3c0.7-1.1,4.2-9.2,4.4-10.8c0.2-0.7,0.1-1.4-0.1-2.1l0.2-0.2
					C22.9,13,23.4,13.5,23.8,14.2z"/>
				<path id="パス_7" class="st1" d="M44.9,22.1l0.3,0.1c-1.8,4.8-4.4,4.9-5.4,4.9c-1.1,0.1-2.2-0.7-2.4-1.8
					c-0.3-1.5-0.4-3.1-0.3-4.7c0-1.5,0.1-3.7,0.1-5.4c0-0.7-0.2-1.3-0.5-1.9l0.2-0.2c0.6,0.6,1.7,1.4,1.8,1.5c0.1,0.3,0,0.3-0.1,0.6
					c-0.3,1.4-0.5,2.9-0.5,4.4c-0.1,1.7,0,3.4,0.2,5.1c0.1,0.8,0.8,1.3,1.6,1.3C41,26.1,42.6,26.2,44.9,22.1z"/>
				<path id="パス_8" class="st1" d="M55.6,24.3l0-6.3c0.1-0.5-0.1-1-0.3-1.5l0.1-0.1c0.4,0.3,0.8,0.6,1.2,0.9
					c0.2,0.3-0.1,0.2-0.1,0.5c-0.1,0.8-0.1,1.7-0.1,2.5c0.7-0.1,1.4-0.3,2-0.6c0.1-0.1,0.3-0.3,0.5-0.2s0.3,0.4,0.5,0.5
					c0.1,0.1,0,0.3-0.4,0.4c-0.4,0.1-1.5,0.4-2.6,0.6l0,3.4c1,0.2,2,0.5,3,1c0.2,0.4,0.3,0.8,0.3,1.2c0,0.4-0.1,0.5-0.4,0.3
					c-0.8-0.8-1.8-1.4-2.9-1.7c-0.1,1.1-1.1,2-2.2,2.1c-2.2,0.3-2.4-2.1-1.3-2.7C53.7,24.2,54.7,24.1,55.6,24.3z M53.8,26.6
					c0.9,0.1,1.7-0.5,1.8-1.4c0-0.1,0-0.1,0-0.2c-0.8-0.2-1.6-0.1-2.3,0.1C52.9,25.4,52.9,26.6,53.8,26.6L53.8,26.6z"/>
				<path id="パス_9" class="st1" d="M67.5,16.7l0.2,0.1c-0.2,0.5-0.3,1-0.3,1.5c0.9-1.3,2.3-2,3.8-2.1c2.3,0,3.1,1.8,3.1,3.8
					c0,3.6-2.5,6.6-5.9,7.5l-0.1-0.4c2.5-1,4.8-3.9,4.8-6.8c0-1.7-0.4-2.9-2-3.2c-1.7-0.3-2.7,1.5-3.2,2.5c-0.2,0.4-0.4,0.4-0.6,0.2
					c-0.2-0.1-0.3-0.3-0.4-0.5C66.6,18.4,66.9,17.4,67.5,16.7z M72.4,12.9c0.3,0,0.4,0.3,0.4,0.5c0.1,0.4,0.1,0.5-0.1,0.5h-0.3
					c-1.1-0.1-2.2,0.2-3.2,0.7l-0.1-0.2c0.4-0.3,0.8-0.6,1.2-0.9c-1-0.4-1.8-1.1-2.3-2l0.3-0.2C69.5,12.3,70.9,12.9,72.4,12.9
					L72.4,12.9z"/>
				<path id="パス_10" class="st1" d="M95.6-0.2h65.4v9.3h21.8V31H95.6V-0.2z"/>
				<rect id="長方形_18" x="95.6" y="9.2" class="st2" width="21.8" height="21.8"/>
				<rect id="長方形_19" x="95.6" y="-0.2" class="st2" width="9.3" height="9.3"/>
				<rect id="長方形_20" x="105" y="-0.2" class="st2" width="9.3" height="9.3"/>
				<rect id="長方形_21" x="114.3" y="-0.2" class="st2" width="9.3" height="9.3"/>
				<rect id="長方形_22" x="123.7" y="-0.2" class="st2" width="9.3" height="9.3"/>
				<rect id="長方形_23" x="133" y="-0.2" class="st2" width="9.3" height="9.3"/>
				<rect id="長方形_24" x="142.4" y="-0.2" class="st2" width="9.3" height="9.3"/>
				<rect id="長方形_25" x="151.7" y="-0.2" class="st2" width="9.3" height="9.3"/>
				<rect id="長方形_26" x="117.4" y="9.2" class="st2" width="21.8" height="21.8"/>
				<rect id="長方形_27" x="139.2" y="9.2" class="st2" width="21.8" height="21.8"/>
				<rect id="長方形_28" x="161.1" y="9.2" class="st2" width="21.8" height="21.8"/>
				<path id="パス_11" d="M101,2.3c0.1,0.1,0,0.1,0,0.2c0,0.3,0,0.6,0,0.9c0.2,0,0.4-0.1,0.4-0.1c0.1,0,0.2-0.1,0.4-0.1
					c0.1,0,0.1,0,0.2,0c0.2,0.2,0.3,0.3,0.1,0.3c-0.1,0-0.2,0-0.2,0c-0.2,0-0.5,0.1-0.9,0.2c0,1.1,0,2.5,0,2.6c0,0.2,0,0.3-0.1,0.4
					c-0.2,0.2-0.2,0.1-0.2,0c-0.1-0.3-0.3-0.5-0.6-0.7l0-0.1c0.2,0,0.4,0.1,0.5,0.2c0-0.6,0-1.3,0-2c-0.5,0.9-1.3,1.7-2.2,2.2
					l-0.1-0.1c0.9-0.6,1.6-1.5,2.1-2.5c-0.6,0.1-1.1,0.3-1.4,0.4c-0.1,0-0.1,0.1-0.2,0.1c-0.1-0.1-0.2-0.2-0.3-0.4
					c0-0.1,0.3,0,0.5,0c0.1,0,1-0.2,1.7-0.4l0-0.9c0-0.2-0.1-0.4-0.2-0.6l0.1-0.1C100.7,2.1,100.9,2.2,101,2.3L101,2.3z"/>
				<path id="パス_12" d="M108.2,3.2c0.4,0.1,0.8,0.2,1.1,0.3c0.1,0.1,0.3,0.4,0.1,0.5c0,0-0.1,0-0.2-0.1c-0.3-0.3-0.7-0.5-1-0.6
					L108.2,3.2z M108.8,6.1c1.1-0.7,2-1.6,2.6-2.8l0.1,0.1c-0.6,1.3-1.5,2.4-2.8,3.2c-0.1,0.1-0.1,0-0.2-0.1
					c-0.1-0.1-0.2-0.2-0.3-0.3l0.1-0.1C108.5,6.1,108.6,6.1,108.8,6.1L108.8,6.1z"/>
				<path id="パス_13" d="M118,3.8c-0.1-0.1-0.2-0.2-0.3-0.4c0-0.1,0.3,0,0.5,0c0.1,0,1-0.2,1.6-0.4c0,0,0-0.1,0-0.1
					c0-0.1,0.1-0.1,0.1-0.1s0.3,0.4,0.3,0.4s-0.1,0.2-0.1,0.2s-0.3,0.6-0.8,1.4c0.5,0.3,0.9,0.6,1.3,0.9c0,0.2,0.1,0.4,0.1,0.6
					c0,0.2-0.1,0.2-0.2,0.1c-0.4-0.5-0.8-1-1.4-1.3c-0.5,0.7-1.2,1.3-1.9,1.8l-0.1-0.1c1.2-0.9,2.1-2.1,2.6-3.4l-1.4,0.4
					C118.2,3.8,118.1,3.8,118,3.8z"/>
				<path id="パス_14" d="M129.8,3.2c0,0-0.1,0.2-0.1,0.2c-0.1,0-0.5,2.7-2.6,3.7L127,6.9c1.2-0.9,2-2.2,2.2-3.6l-1.4,0.4
					c-0.2,0.5-0.5,1-0.9,1.4L126.8,5c0.5-0.6,0.8-1.4,0.9-2.3c0-0.2,0-0.3-0.1-0.5l0.1,0c0.2,0.2,0.4,0.4,0.5,0.4
					c0.1,0.1,0,0.1,0,0.2c0,0.2,0,0.3-0.1,0.4l1.4-0.3c0,0,0-0.1,0-0.1c0-0.1,0.1-0.1,0.1-0.1S129.7,3.2,129.8,3.2z"/>
				<path id="パス_15" d="M136.9,2.5c0.2,0.1,0.3,0.3,0.4,0.3s0,0.1,0,0.2c-0.1,0.7-0.1,1.3,0,2c0,0.1-0.1,0.1-0.1,0.1
					c-0.2-0.1-0.3-0.3-0.3-0.4c0.1-0.5,0.1-1,0.1-1.6C136.9,3,136.9,2.8,136.9,2.5L136.9,2.5z M138.5,2.8c0-0.2,0-0.4-0.1-0.6
					l0.1-0.1c0.1,0.1,0.3,0.3,0.4,0.4c0.1,0.1,0,0.1,0,0.2c0,2.5-0.1,3.6-1.7,4.3l0-0.1C138.2,6.2,138.4,5.6,138.5,2.8L138.5,2.8z"
					/>
				<path id="パス_16" d="M148.6,4.5c0.2,0,0.3,0,0.3,0s0,0,0.1,0.1c0.1,0.1,0,0.1,0,0.1c-0.1,0.1-0.1,0.1-0.3,0.1
					c-1.4,0-2.3,0.1-2.9,0.1c-0.3,0-0.3,0.1-0.4,0c-0.1-0.1-0.1-0.2-0.2-0.3l0.1-0.1c0.1,0,0.2,0.1,0.3,0
					C146.8,4.7,147.7,4.6,148.6,4.5z"/>
				<path id="パス_17" d="M155.2,3.2c0.4,0.1,0.8,0.2,1.1,0.3c0.1,0.1,0.3,0.4,0.1,0.5c0,0-0.1,0-0.2-0.1c-0.3-0.3-0.7-0.5-1-0.6
					L155.2,3.2z M155.8,6.1c1.1-0.7,2-1.6,2.6-2.8l0.1,0.1c-0.6,1.3-1.5,2.4-2.8,3.2c-0.1,0.1-0.1,0-0.2-0.1
					c-0.1-0.1-0.2-0.2-0.3-0.3l0.1-0.1C155.5,6.1,155.7,6.1,155.8,6.1L155.8,6.1z"/>
				<path id="パス_18" d="M112.2,20.2c-1.1,0.1-2.2,0.2-3.3,0.4c-1.8,0.3-3.6,0.6-5.4,0.9c-0.4,0.1-1,0.2-1.4,0.3
					c-0.4,0.1-0.7,0.2-1.1,0.3c-0.3-0.1-0.5-0.3-0.6-0.5c0-0.1,0.1-0.2,0.2-0.2c0.3,0,0.7-0.1,1-0.1c1.5-0.2,3-0.5,4.5-0.7v-0.9
					c-0.6,0.1-1.2,0.2-1.7,0.3c-0.2,0-0.8,0.2-0.9,0.2s-0.5-0.4-0.4-0.5c0-0.1,0.4-0.1,0.7-0.1c0.8-0.1,1.7-0.2,2.5-0.3l0-0.1
					c0-0.3,0-0.5,0-0.8c-0.5,0.1-0.7,0.1-1.5,0.3c-0.3,0.1-0.6,0.1-1,0.2c-0.2,0.1-0.5,0.1-0.7,0.2c-0.1,0-0.4-0.3-0.4-0.6
					c0-0.1,0.6-0.1,0.7-0.1c1-0.1,2-0.3,3-0.4v-1c-1.2,0.2-2.4,0.4-3.6,0.6c-0.4,0.1-0.7,0.2-1.1,0.2c-0.4,0.1-0.9,0.2-1.3,0.3
					c-0.2,0-0.6-0.4-0.6-0.5s0.2-0.2,0.3-0.2c0.3,0,0.5,0,0.8-0.1c0.9-0.1,1.8-0.2,2.7-0.4s1.8-0.3,2.7-0.4l0.1,0v-0.9l-1.6,0.3
					c-0.8,0.1-1.5,0.3-1.6,0.3c-0.3-0.1-0.5-0.3-0.5-0.5c0-0.1,0.2-0.1,0.3-0.1c0.2,0,0.4,0,0.6,0c0.9-0.1,1.9-0.3,2.8-0.4
					c0-0.5,0-0.9-0.2-1.4c-0.1-0.2-0.1-0.3-0.2-0.5c0-0.1,0-0.1,0.1-0.1c0,0,0,0,0,0c0.2,0,0.8,0.6,1,0.8s0.3,0.3,0.3,0.5
					s-0.2,0.5-0.2,0.7l0,0c0.6-0.1,1.2-0.2,1.8-0.3c0.2-0.1,0.3-0.5,0.5-0.5c0.2,0.1,0.4,0.2,0.6,0.3c0.2,0.2,0.4,0.3,0.4,0.4
					c0,0.2-0.3,0.3-0.4,0.5c-0.1,0.2-0.1,0.4-0.1,0.6l0.3,0c0.5-0.1,0.9-0.1,1.4-0.3c0.3-0.1,0.5-0.6,0.8-0.6s1.2,0.6,1.2,0.8
					s-0.3,0.3-0.5,0.3c-1.1,0.1-2,0.2-3.1,0.4l-0.1,0c0,0.2,0,0.5,0,0.7c0.2,0.1,0.6,0.4,0.6,0.6c0,0.2-0.3,0.2-0.3,0.2
					c-0.3,0-0.6,0.1-0.9,0.1c-0.5,0.1-1.6,0.2-2.2,0.3V19c0.5-0.1,1-0.1,1.5-0.3c0.3-0.1,0.4-0.5,0.6-0.5s1,0.5,1,0.7
					s-0.1,0.2-0.3,0.2c-0.5,0-1.1,0.1-1.6,0.2c-0.4,0.1-0.8,0.1-1.2,0.2c0,0.3,0,0.6,0,0.9c0.9-0.1,1.3-0.2,2.2-0.3
					c0.5-0.1,1.1-0.2,1.6-0.3c0.2-0.1,0.4-0.5,0.6-0.5c0.2,0,1.1,0.5,1.1,0.8S112.4,20.2,112.2,20.2z M104.3,26.7
					c-0.2,0-0.7-0.2-0.7-0.5c0-0.2,0.1-0.4,0.1-0.6c0-0.3,0-0.6,0-1c0-0.7,0-1.5-0.1-2.2c-0.1-0.2-0.1-0.4-0.2-0.7
					c0-0.1,0.1-0.1,0.2-0.1c0.2,0.1,0.4,0.3,0.6,0.5c1.2-0.2,2.3-0.4,3.5-0.6c0.2,0,0.4-0.1,0.5-0.2c0.1-0.1,0.3-0.4,0.4-0.4
					c0.2,0,1.1,0.7,1.1,0.9s-0.4,0.4-0.5,0.5c-0.1,0.4-0.1,0.8-0.1,1.2c0,0.7,0,1.4,0,1.6c0,0.4,0,0.8,0,1.2c0,0.2,0,0.4-0.2,0.4
					s-0.6-0.3-0.6-0.5c0-0.3,0-0.6,0.1-1c0,0-0.1,0-0.1,0c-0.2,0-0.4,0-0.4,0c-1.2,0.1-2.3,0.3-3.5,0.5c0,0.1,0,0.2,0,0.3
					C104.5,26.2,104.5,26.7,104.3,26.7L104.3,26.7z M104.4,23.6c0.9-0.1,1.7-0.3,2.5-0.5c0.2-0.1,0.3-0.2,0.5-0.2
					c0.1,0,0.5,0.4,0.5,0.5c0,0.2-0.5,0.2-0.7,0.2c-1,0.1-1.9,0.3-2.9,0.4c0,0.4,0,0.8,0,1.1c0.8-0.1,1.7-0.2,2.4-0.4
					c0.3,0,1-0.2,1.2-0.3c0.1,0,0.3,0.1,0.4,0.2c0-0.8,0-1.5,0-2.3c0-0.2,0-0.4,0-0.5c-1.4,0.2-2.8,0.4-4.1,0.6
					C104.4,23,104.4,23.3,104.4,23.6L104.4,23.6z M108.9,17.2l0.1-1c-0.7,0.1-1.4,0.2-2.1,0.3c0,0.3,0,0.7,0,1
					C107.5,17.5,108.3,17.3,108.9,17.2L108.9,17.2z M106.9,15.4V16l2.2-0.3c0-0.3,0-0.6,0.1-0.9c-0.7,0.1-1.5,0.2-2.2,0.3
					C106.9,15.2,106.9,15.3,106.9,15.4L106.9,15.4z"/>
				<path id="パス_19" d="M124.9,18.3c0,0.4-0.1,0.7-0.1,1.1c0,1.9,0,3.9,0.1,5.7c0,0.3,0,1.1-0.3,1.1c-0.3,0-0.8-0.3-0.8-0.6
					c0-0.4,0.1-0.8,0.2-1.2c0.1-0.9,0.1-1.9,0.1-2.8c0-0.7,0-1.5,0-2.2c0-0.5,0-1,0-1.6c-0.7,1.2-1.5,2.2-2.4,3.2
					c-0.1,0.1-0.4,0.4-0.6,0.4c0,0-0.1,0-0.1-0.1c0,0,0,0,0,0c0-0.2,0.3-0.5,0.4-0.6c1.3-1.7,2.4-3.6,3.2-5.5
					c0.2-0.4,0.3-0.7,0.3-1.1c0-0.2-0.1-0.5-0.1-0.7c0-0.1,0-0.2,0.2-0.2c0.2,0,1.1,1,1.1,1.2s-0.5,0.8-0.6,1
					c-0.3,0.5-0.5,1.1-0.8,1.6c0.2,0.2,0.4,0.4,0.4,0.6C125,17.9,124.9,18.1,124.9,18.3z M127.5,21.4c-0.6,0.7-1.2,1.3-2,1.8
					c-0.1,0.1-0.3,0.2-0.5,0.2c-0.1,0-0.1,0-0.1-0.1c0-0.1,0.2-0.3,0.3-0.4c1.7-1.6,3.1-3.5,4-5.6c-0.3,0-0.6,0.1-0.9,0.2
					c-0.5,0.1-0.9,0.2-1.5,0.3c-0.2,0.1-0.5,0.2-0.8,0.2c-0.2,0-0.6-0.5-0.6-0.7s0.3-0.2,0.5-0.2c1.2-0.1,2.3-0.3,3.5-0.5
					c0-0.4,0-1,0-1.2c0-0.5,0-1-0.1-1.4c0-0.3-0.1-0.6-0.2-0.8c-0.1-0.1-0.2-0.3-0.2-0.5c0-0.1,0.1-0.1,0.2-0.1
					c0.1,0,0.4,0.2,0.6,0.5c0.3,0.3,0.7,0.6,0.7,0.7c0,0.2-0.1,0.5-0.2,0.7c-0.1,0.6-0.1,1.2-0.1,1.7v0.3c0.4-0.1,0.7-0.1,1.1-0.2
					c0.3,0,0.5-0.1,0.8-0.2c0.3-0.1,0.5-0.7,0.7-0.7s1.3,0.6,1.3,0.9c0,0.2-0.5,0.3-0.6,0.3c-1,0.1-2,0.2-3.2,0.4
					c0.7,1.2,1.6,2.2,2.6,3.2c0.6,0.5,1.2,0.9,1.9,1.2c0.1,0,0.8,0.2,0.8,0.3c0,0.2-0.3,0.3-0.4,0.3c-0.4,0.1-0.7,0.2-1.1,0.4
					c-0.2,0.1-0.4,0.2-0.5,0.2c-0.2,0-0.3-0.3-0.4-0.4c-0.8-1.3-1.6-2.3-2.3-3.6c-0.2-0.3-0.4-0.6-0.6-0.9c0,0.9,0,1.9,0,2.8
					c0,0.5,0,1.1,0,1.6l0.4-0.1c0.2,0,0.4-0.1,0.5-0.1c0.2-0.1,0.3-0.4,0.5-0.4s1.1,0.5,1,0.7s-0.1,0.2-0.3,0.2l-1.1,0.1
					c-0.4,0.1-0.7,0.1-1.1,0.2c0,0.3,0,0.6,0,0.9c0,0.7,0.1,1.4,0.1,2.1c0,0.2,0.1,0.9-0.3,0.9c-0.3,0-0.8-0.3-0.8-0.6
					c0-0.4,0.2-0.9,0.2-1.4c0-0.6,0.1-1.2,0.1-1.8c-0.4,0.1-0.9,0.1-1.3,0.2c-0.3,0.1-0.6,0.1-0.9,0.2c-0.2,0-0.5-0.4-0.5-0.6
					c0-0.1,0.2-0.1,0.3-0.1c0.3,0,0.6,0,0.9-0.1c0.5-0.1,1-0.1,1.5-0.2c0-1.3,0-3.1,0-4.1C129,19.4,128.3,20.4,127.5,21.4
					L127.5,21.4z"/>
				<path id="パス_20" d="M148.8,22.3c-0.3,0.3-0.5,0.7-0.7,1c-0.7,1-1.6,1.8-2.7,2.4c-0.5,0.3-1,0.5-1.5,0.6
					c-0.2,0.1-0.3,0.1-0.5,0.1c0,0-0.2,0-0.2-0.1c0-0.1,0.2-0.2,0.4-0.3c1.1-0.5,2-1.1,2.8-1.9c0.7-0.7,1.3-1.5,1.6-2.4
					c0-0.1,0-0.3,0-0.4c0-0.1,0-0.3,0.1-0.3c0.2,0,0.9,0.7,0.9,1C149,22.2,148.8,22.3,148.8,22.3z M146.8,21.9c0,0.1,0,0.6-0.2,0.6
					c-0.3,0-0.7-0.1-0.7-0.4c0-0.3,0-0.5,0.1-0.8c0-0.4,0.1-0.7,0.1-1.1c0-0.9,0-1.8,0-2.7c0-1,0-2-0.1-3c-0.1-0.2-0.1-0.5-0.1-0.7
					c0,0,0-0.1,0.1-0.1c0.2,0,0.7,0.6,0.8,0.8c1.3-0.2,2.7-0.4,4-0.7c0.4,0,0.8-0.2,1.2-0.3c0.1-0.1,0.4-0.5,0.5-0.5
					c0.3,0,1.2,0.8,1.2,1.1s-0.4,0.4-0.6,0.6c-0.1,0.3-0.1,0.5-0.1,0.8v1.3c0,1.2,0,1.4,0,2.6c0,0.5,0.1,1.1,0.1,1.7
					c0,0.2,0,0.5-0.2,0.5c-0.3,0-0.8-0.1-0.8-0.4c0-0.3,0-0.6,0-0.9c-0.1,0-0.3,0-0.4,0.1c-0.4,0.1-0.9,0.1-1.3,0.2
					c0.3,0.2,0.5,0.4,0.5,0.5c0,0.2-0.1,0.3-0.1,0.5c0,0.2-0.1,0.5-0.1,0.7c0,0.7,0,1.4,0,2.1c0,0.4,0.2,0.6,0.7,0.6
					c0.8,0,1.5-0.1,2.2-0.3c0.5-0.1,0.9-0.4,1.2-0.7c0.4-0.5,0.6-1.1,0.8-1.7c0-0.1,0.2-0.2,0.3-0.2c0.2,0,0.2,0.3,0.2,0.4
					c0,0.9-0.1,1.8-0.4,2.7c-0.4,0.2-0.8,0.3-1.2,0.3c-1.2,0.2-2.4,0.3-3.6,0.3c-0.3,0-0.7,0-1-0.1c-0.1-0.1-0.1-0.2-0.1-0.4
					c0-0.2,0-0.4,0-0.6c0-0.4,0-0.8,0-1.2c0-0.7,0-1.4,0-2c0-0.2,0-0.5,0-0.7c0-0.1,0-0.2,0-0.2c-1,0.2-2,0.3-3.1,0.5L146.8,21.9
					L146.8,21.9z M146.8,16.4c0.6-0.1,1.3-0.2,1.9-0.3c0.4-0.1,0.8-0.2,1.2-0.3c0.2-0.1,0.8-0.4,0.9-0.4c0.2,0,0.6,0.5,0.6,0.7
					s-0.5,0.2-0.7,0.3c-1.3,0.2-2.7,0.5-4,0.7v1.3c0.6-0.1,1.3-0.2,1.9-0.3c0.4-0.1,0.8-0.1,1.2-0.3c0.2-0.1,0.8-0.4,0.9-0.4
					c0.3,0.1,0.5,0.4,0.6,0.7c0,0.2-0.5,0.2-0.7,0.3l-4,0.7v1.5c0.9-0.1,1.9-0.3,2.8-0.4c0.4-0.1,0.9-0.2,1.3-0.3
					c0.2,0,0.8-0.3,0.9-0.3c0.2,0,0.3,0.1,0.4,0.2c0-0.1,0-0.2,0-0.3c0-2,0-3.3,0-5.3c-1.8,0.3-3.6,0.6-5.5,0.9
					C146.8,15.4,146.8,15.9,146.8,16.4L146.8,16.4z"/>
				<path id="パス_21" d="M167.1,22.9c-0.6,0.5-1.2,0.9-1.9,1.1c-0.1,0-0.2,0-0.2-0.1s0.3-0.4,0.4-0.4c2.4-1.6,4.3-3.8,5.6-6.4
					c-0.3,0-0.6,0.1-0.9,0.2c-0.5,0.1-1.1,0.2-1.6,0.4c-0.3,0.1-0.6,0.2-1,0.3c-0.3-0.1-0.6-0.4-0.7-0.7c0-0.1,0.4-0.1,0.5-0.1
					c1.4-0.1,2.7-0.4,4.1-0.6c0-0.5,0-1,0-1.4c0-0.3,0-0.7,0-1c0-0.2-0.1-0.5-0.1-0.7c-0.1-0.1-0.1-0.2-0.1-0.3c0-0.1,0-0.1,0.1-0.1
					c0,0,0,0,0,0c0.2,0,1.3,0.8,1.3,1.1c0,0.1-0.1,0.3-0.1,0.4c-0.1,0.2-0.1,0.4-0.1,0.7c0,0.5-0.1,0.9,0,1.4
					c0.8-0.1,1.5-0.2,2.3-0.4c0.3-0.1,0.5-0.7,0.7-0.7c0.4,0.1,0.8,0.2,1.1,0.5c0.1,0.1,0.4,0.3,0.4,0.5c0,0.2-0.3,0.2-0.5,0.2
					c-0.9,0.1-1.8,0.2-2.9,0.3l-1,0.1c1,1.4,2.3,2.6,3.8,3.5c0.8,0.5,1.7,0.8,2.7,1c0.1,0,0.6,0.1,0.6,0.3s-0.3,0.2-0.4,0.3
					c-0.6,0.1-1.2,0.4-1.7,0.7c-0.1,0-0.3,0.2-0.4,0.2c-0.1,0-0.3-0.1-0.3-0.2c-1.3-1.3-2.3-2.6-3.4-3.9c-0.3-0.4-0.6-0.7-0.9-1.1
					c0,1.2,0,2.3,0,3.5c0,0.3,0,0.6,0,0.9c0.3,0,0.6-0.1,0.9-0.2c0.2,0,0.6-0.6,0.8-0.6s1.2,0.6,1.2,0.9c0,0.2-0.3,0.2-0.5,0.2
					c-0.4,0.1-0.9,0.1-1.3,0.2s-0.7,0.1-1.1,0.2c0,1,0,1.9,0,2.9c0,0.2,0.1,1.2-0.2,1.2c-0.2,0-0.4,0-0.6-0.1
					c-0.3-0.1-0.4-0.3-0.4-0.4s0.1-0.5,0.1-0.9c0.1-0.4,0.1-0.8,0.1-1c0-0.4,0.1-1.1,0.1-1.5c-0.3,0-0.6,0.1-0.9,0.2
					c-0.2,0-0.5,0.1-0.7,0.2c-0.2,0.1-0.4,0.1-0.6,0.2c-0.2,0-0.8-0.4-0.8-0.6s0.3-0.2,0.5-0.2c0.5,0,0.9-0.1,1.4-0.2
					c0.4-0.1,0.8-0.1,1.1-0.2c0-1,0-2,0-3.1c0-0.3,0-0.5,0-0.8C170.3,20,168.9,21.6,167.1,22.9z"/>
			</g>
		</g>
	</g>
	<path id="variable_haikei" class="st0" d="M0,640.8h375v192.3H0V640.8z"/>
	<g id="Weight_title" transform="translate(51 654.337)">
		<g class="st3">
			<path class="st1" d="M9.6,17.3c-0.3,0.9-0.7,1.9-1,2.8s-0.7,1.9-1,2.9S7,24.8,6.7,25.5c-0.3,0-0.7,0-1.1,0c-0.2,0-0.4,0-0.6,0
				c-0.2,0-0.4,0-0.6,0c-0.2-0.6-0.4-1.4-0.6-2.3c-0.3-1-0.6-2-0.9-3C2.6,19.1,2.3,18,2,16.9c-0.3-1.1-0.6-2.1-0.9-3
				c-0.3-0.9-0.5-1.7-0.7-2.3c-0.2-0.6-0.3-1-0.4-1.2c0.3,0,0.6,0.1,0.9,0.1c0.3,0,0.6,0,0.9,0c0.3,0,0.6,0,0.9,0
				c0.3,0,0.6,0,0.9-0.1c0.2,0.9,0.5,1.9,0.7,2.9s0.5,2,0.8,2.9c0.3,1,0.5,1.9,0.7,2.8c0.2,0.9,0.5,1.7,0.7,2.5h0
				c0.3-0.9,0.7-1.9,1-3s0.7-2.1,1.1-3.2s0.7-2,1-2.9c0.3-0.9,0.5-1.6,0.7-2.1c0.2,0,0.4,0.1,0.6,0.1c0.2,0,0.4,0,0.5,0s0.4,0,0.6,0
				c0.2,0,0.4,0,0.5-0.1c0.1,0.3,0.2,0.8,0.3,1.3c0.2,0.5,0.3,1.1,0.6,1.8c0.2,0.7,0.4,1.4,0.7,2.1c0.2,0.7,0.5,1.5,0.7,2.2
				c0.2,0.7,0.5,1.4,0.7,2c0.2,0.6,0.4,1.2,0.5,1.7h0c0.3-0.9,0.6-1.9,0.9-3.1c0.3-1.1,0.6-2.2,1-3.2c0.3-1,0.6-2,0.8-2.9
				c0.2-0.9,0.4-1.5,0.5-2c0.4,0.1,0.7,0.1,0.9,0.1c0.2,0,0.3,0,0.5,0c0.2,0,0.3,0,0.5-0.1c-0.1,0.3-0.3,0.7-0.5,1.4
				S20.3,13.2,20,14c-0.3,0.9-0.6,1.8-0.9,2.8c-0.3,1-0.7,2-1,3.1c-0.3,1-0.7,2-1,3s-0.6,1.9-0.8,2.6c-0.3,0-0.7,0-1.1,0
				c-0.2,0-0.4,0-0.6,0c-0.2,0-0.4,0-0.6,0c-0.5-1.8-1-3.6-1.6-5.3c-0.6-1.8-1.2-3.6-1.9-5.4h0C10.2,15.6,9.9,16.4,9.6,17.3z"/>
			<path class="st1" d="M24.7,20.3c0,0.6,0.1,1.1,0.2,1.6c0.1,0.5,0.3,1,0.5,1.3c0.2,0.4,0.6,0.7,0.9,0.9c0.4,0.2,0.8,0.3,1.3,0.3
				c1,0,1.9-0.3,2.7-1l0.3,0.2l-0.5,1.2c-0.4,0.3-0.8,0.5-1.3,0.7c-0.5,0.2-1.2,0.3-2,0.3c-0.7,0-1.4-0.1-2-0.3s-1.2-0.5-1.7-1
				c-0.5-0.5-0.9-1-1.2-1.7c-0.3-0.7-0.4-1.5-0.4-2.5c0-1,0.1-1.8,0.4-2.5s0.6-1.3,1.1-1.8c0.5-0.5,1-0.8,1.6-1.1s1.3-0.4,2-0.4
				c1.5,0,2.6,0.4,3.3,1.3s1.2,2.1,1.2,3.6V20c0,0.1,0,0.2,0,0.3H24.7z M28.1,19.3c0-1.1-0.2-2-0.4-2.6c-0.2-0.7-0.6-1-1.2-1
				c-0.3,0-0.6,0.1-0.8,0.3c-0.2,0.2-0.4,0.5-0.5,0.8c-0.1,0.3-0.2,0.7-0.3,1.2s-0.1,0.9-0.1,1.3H28.1z"/>
			<path class="st1" d="M33.1,10.8c0-0.5,0.2-0.9,0.5-1.2c0.3-0.3,0.7-0.5,1.2-0.5s0.9,0.2,1.2,0.5c0.3,0.3,0.5,0.7,0.5,1.2
				c0,0.5-0.2,0.9-0.5,1.2c-0.3,0.3-0.7,0.5-1.2,0.5s-0.9-0.2-1.2-0.5C33.2,11.7,33.1,11.3,33.1,10.8z M33.3,19.8c0-0.9,0-1.7,0-2.5
				c0-0.8-0.1-1.6-0.1-2.4c0.2,0,0.4,0.1,0.7,0.1c0.3,0,0.6,0,0.9,0c0.7,0,1.2,0,1.6-0.1c-0.1,0.8-0.1,1.6-0.1,2.4s0,1.6,0,2.5v0.9
				c0,0.9,0,1.7,0,2.5s0.1,1.6,0.1,2.3c-0.2,0-0.4,0-0.7,0c-0.3,0-0.6,0-0.9,0c-0.3,0-0.6,0-0.9,0s-0.5,0-0.7,0
				c0.1-0.7,0.1-1.5,0.1-2.3c0-0.8,0-1.6,0-2.5V19.8z"/>
			<path class="st1" d="M46.5,15.8c0.4,0.3,0.7,0.6,0.9,1c0.2,0.4,0.3,0.9,0.3,1.4c0,0.5-0.1,1-0.3,1.5c-0.2,0.4-0.5,0.8-0.9,1.2
				c-0.4,0.3-0.8,0.6-1.3,0.7s-1.1,0.3-1.7,0.3c-0.2,0-0.3,0-0.5,0c-0.2,0-0.3,0-0.5,0c-0.2,0-0.3,0.1-0.5,0.2
				c-0.1,0.2-0.2,0.3-0.2,0.5c0,0.4,0.1,0.6,0.4,0.8c0.3,0.2,0.7,0.3,1.3,0.3l1.6,0c1.2,0,2.1,0.2,2.7,0.7c0.6,0.4,0.9,1.2,0.9,2.1
				c0,0.9-0.2,1.6-0.5,2.2c-0.4,0.6-0.8,1.1-1.4,1.5s-1.2,0.6-1.9,0.8c-0.7,0.2-1.4,0.2-2,0.2c-1.4,0-2.5-0.3-3.2-0.8
				s-1.2-1.2-1.2-2.1c0-0.7,0.2-1.3,0.6-1.7c0.4-0.4,0.9-0.8,1.6-1v0c-0.4-0.1-0.7-0.3-0.9-0.6c-0.2-0.3-0.3-0.6-0.3-1
				c0-0.5,0.2-1,0.6-1.4c0.4-0.5,0.9-0.8,1.5-0.9v0c-0.9-0.2-1.6-0.6-2.1-1.2c-0.5-0.6-0.7-1.3-0.7-2.3c0-0.6,0.1-1.1,0.3-1.5
				c0.2-0.4,0.5-0.8,1-1.1s0.9-0.5,1.5-0.7c0.6-0.2,1.2-0.2,1.9-0.2c0.3,0,0.5,0,0.8,0c0.3,0,0.5,0,0.8,0.1c0.2,0,0.4,0,0.6,0
				c0.2,0,0.4,0,0.6,0c0.4,0,0.7,0,1.1,0c0.4,0,0.8,0,1.2,0c0,0.1,0,0.2,0,0.3c0,0.1,0,0.2,0,0.3c0,0.1,0,0.2,0,0.3
				c0,0.1,0,0.2,0,0.3L46.5,15.8L46.5,15.8z M46.2,27.9c0-0.4-0.1-0.8-0.2-1c-0.1-0.3-0.4-0.5-0.6-0.6s-0.6-0.2-1-0.3
				c-0.4-0.1-0.8-0.1-1.3-0.1c-0.8,0-1.3,0.1-1.6,0.2c-0.2,0.1-0.4,0.3-0.6,0.6c-0.2,0.3-0.3,0.8-0.3,1.3c0,0.4,0.1,0.8,0.2,1.1
				c0.2,0.3,0.4,0.6,0.6,0.8c0.3,0.2,0.6,0.4,0.9,0.5c0.3,0.1,0.7,0.2,1.1,0.2c0.4,0,0.8-0.1,1.1-0.2c0.3-0.1,0.6-0.3,0.9-0.6
				c0.2-0.2,0.4-0.5,0.5-0.8S46.2,28.2,46.2,27.9z M43.2,15.6c-1,0-1.5,1-1.5,2.9c0,0.5,0,0.9,0.1,1.2s0.2,0.6,0.3,0.8
				c0.1,0.2,0.3,0.4,0.5,0.4c0.2,0.1,0.3,0.1,0.5,0.1c0.5,0,0.8-0.2,1.1-0.6c0.2-0.4,0.4-1.1,0.4-2.2c0-1-0.1-1.7-0.4-2.1
				C44,15.8,43.6,15.6,43.2,15.6z"/>
			<path class="st1" d="M50.2,12.6c0-1.2-0.1-2.4-0.1-3.7C50.2,9,50.5,9,50.8,9c0.3,0,0.6,0,0.9,0s0.6,0,0.9,0c0.3,0,0.5,0,0.7-0.1
				c-0.1,1.2-0.1,2.4-0.1,3.7c0,1.2,0,2.5,0,4l0,0c0.4-0.6,0.8-1.1,1.4-1.4c0.5-0.3,1.2-0.5,1.9-0.5c1.1,0,1.9,0.3,2.5,1
				c0.6,0.6,0.9,1.7,0.9,3.1c0,0.7,0,1.4,0,2c0,0.6,0,1.1,0,1.7c0,0.5,0,1,0,1.5c0,0.5,0,1.1,0.1,1.6c-0.2,0-0.4,0-0.7,0
				s-0.6,0-0.9,0c-0.3,0-0.6,0-0.9,0c-0.3,0-0.5,0-0.7,0c0.1-0.8,0.2-1.7,0.2-2.7c0-1,0-2.2,0-3.6c0-0.9-0.2-1.6-0.5-2
				c-0.3-0.4-0.8-0.6-1.3-0.6c-0.7,0-1.1,0.3-1.5,0.9c-0.3,0.6-0.5,1.4-0.5,2.4v0.9c0,0.2,0,0.5,0,0.9s0,0.8,0,1.3
				c0,0.5,0,0.9,0.1,1.4s0,0.9,0.1,1.2c-0.2,0-0.4,0-0.7,0c-0.3,0-0.6,0-0.9,0s-0.6,0-0.9,0c-0.3,0-0.5,0-0.7,0
				c0.1-1.2,0.1-2.4,0.1-3.6c0-1.2,0-2.5,0-4v-1.4C50.2,15.1,50.2,13.8,50.2,12.6z"/>
			<path class="st1" d="M68,15.7c0,0.2,0,0.4,0.1,0.5l-1.9,0c0,0.3-0.1,0.7-0.1,1.2c0,0.4,0,0.9,0,1.3c0,0.5,0,0.9,0,1.3
				c0,0.4,0,0.8,0,1.1c0,0.8,0,1.4,0.1,1.8c0,0.5,0.1,0.8,0.2,1.1c0.1,0.2,0.2,0.4,0.4,0.5c0.2,0.1,0.4,0.1,0.6,0.1
				c0.3,0,0.5,0,0.6-0.1c0.1,0,0.3-0.1,0.4-0.2v0.9c-0.3,0.1-0.7,0.2-1.1,0.4s-0.9,0.2-1.3,0.2c-1.9,0-2.8-1.1-2.8-3.3
				c0-0.4,0-0.9,0-1.4c0-0.5,0-1.1,0.1-1.7c0-0.6,0-1.1,0.1-1.7c0-0.5,0-1.1,0-1.5l-1.5,0c0-0.2,0.1-0.4,0.1-0.5
				c0-0.2,0-0.4-0.1-0.6l1.5,0.1c0-0.5,0-0.9,0-1.3c0-0.4,0-0.9-0.1-1.4c0.5-0.2,1-0.4,1.5-0.6c0.5-0.2,1-0.5,1.5-0.7l0.2,0.2
				c0,0.2-0.1,0.5-0.1,0.8s0,0.6-0.1,1s0,0.7,0,1.1s0,0.7,0,1l1.9,0C68,15.3,68,15.5,68,15.7z"/>
		</g>
		<g class="st3">
			<path class="st1" d="M76.6,14.8c0-0.4,0.1-0.7,0.4-1c0.3-0.3,0.6-0.4,1-0.4s0.7,0.1,1,0.4c0.3,0.3,0.4,0.6,0.4,1
				c0,0.4-0.1,0.7-0.4,1c-0.3,0.3-0.6,0.4-1,0.4s-0.7-0.1-1-0.4C76.7,15.5,76.6,15.2,76.6,14.8z M76.6,20.4c0-0.4,0.1-0.7,0.4-1
				c0.3-0.3,0.6-0.4,1-0.4s0.7,0.1,1,0.4c0.3,0.3,0.4,0.6,0.4,1s-0.1,0.7-0.4,1c-0.3,0.3-0.6,0.4-1,0.4s-0.7-0.1-1-0.4
				C76.7,21.1,76.6,20.8,76.6,20.4z"/>
		</g>
	</g>
	<g id="Counter_space_title" transform="translate(51 743.779)">
		<g class="st3">
			<path class="st1" d="M136.6,9.4c0-0.4,0.1-0.7,0.4-1c0.3-0.3,0.6-0.4,1-0.4c0.4,0,0.7,0.1,1,0.4c0.3,0.3,0.4,0.6,0.4,1
				s-0.1,0.7-0.4,1c-0.3,0.3-0.6,0.4-1,0.4c-0.4,0-0.7-0.1-1-0.4C136.7,10.1,136.6,9.8,136.6,9.4z M136.6,15c0-0.4,0.1-0.7,0.4-1
				c0.3-0.3,0.6-0.4,1-0.4c0.4,0,0.7,0.1,1,0.4c0.3,0.3,0.4,0.6,0.4,1c0,0.4-0.1,0.7-0.4,1c-0.3,0.3-0.6,0.4-1,0.4
				c-0.4,0-0.7-0.1-1-0.4C136.7,15.7,136.6,15.4,136.6,15z"/>
		</g>
		<g class="st3">
			<path class="st1" d="M12.4,16.7c-0.1,0.3-0.1,0.6-0.2,0.9c-1.1,0.5-2.4,0.8-4.1,0.8c-1.2,0-2.2-0.2-3.1-0.5
				c-0.9-0.3-1.7-0.8-2.3-1.4s-1.1-1.3-1.4-2.1c-0.3-0.8-0.5-1.7-0.5-2.6c0-1.4,0.2-2.6,0.6-3.5c0.4-1,1-1.8,1.7-2.4
				c0.7-0.6,1.6-1,2.5-1.3c1-0.3,2-0.4,3-0.4c0.3,0,0.7,0,1.1,0.1c0.4,0.1,0.8,0.1,1.1,0.2c0.4,0.1,0.7,0.2,1,0.3
				c0.3,0.1,0.6,0.2,0.8,0.4c-0.1,0.3-0.2,0.7-0.3,1c-0.1,0.3-0.1,0.7-0.2,1h-0.3c-0.5-0.6-1-1.1-1.6-1.4S9.3,5.3,8.6,5.3
				C8.1,5.3,7.6,5.5,7,5.7C6.5,5.9,6,6.3,5.5,6.8C5.1,7.3,4.8,7.9,4.5,8.7c-0.3,0.8-0.4,1.7-0.4,2.8c0,1,0.1,1.9,0.4,2.6
				c0.3,0.7,0.6,1.3,1.1,1.8c0.4,0.5,1,0.8,1.5,1c0.6,0.2,1.1,0.3,1.7,0.3c0.3,0,0.6,0,1-0.1c0.3-0.1,0.7-0.2,1-0.3
				c0.3-0.1,0.6-0.3,0.9-0.5c0.3-0.2,0.5-0.4,0.8-0.6l0.3,0.2C12.6,16.1,12.5,16.4,12.4,16.7z"/>
			<path class="st1" d="M14.1,13.6c0-0.9,0.1-1.7,0.4-2.3c0.3-0.7,0.6-1.2,1.1-1.7c0.5-0.4,1-0.8,1.6-1c0.6-0.2,1.2-0.3,1.8-0.3
				c1.6,0,2.8,0.4,3.6,1.3c0.9,0.9,1.3,2.1,1.3,3.6c0,0.8-0.1,1.5-0.4,2.2c-0.2,0.7-0.6,1.2-1,1.7c-0.4,0.5-0.9,0.8-1.5,1
				s-1.3,0.3-2,0.3c-0.6,0-1.2-0.1-1.8-0.2c-0.6-0.2-1.1-0.4-1.6-0.8c-0.5-0.4-0.8-0.9-1.1-1.5S14.1,14.4,14.1,13.6z M20.9,12.8
				c0-1.2-0.1-2.1-0.4-2.7c-0.3-0.6-0.8-1-1.5-1c-0.6,0-1.1,0.4-1.5,1.1C17.2,10.9,17,12,17,13.6c0,0.6,0,1.1,0.1,1.6
				c0.1,0.5,0.2,0.9,0.3,1.2s0.4,0.6,0.6,0.8c0.2,0.2,0.6,0.3,0.9,0.3C20.3,17.5,20.9,15.9,20.9,12.8z"/>
			<path class="st1" d="M31.8,16.7c-0.4,0.6-0.8,1-1.3,1.3s-1.1,0.4-1.7,0.4c-1,0-1.8-0.3-2.3-0.8c-0.5-0.6-0.8-1.5-0.8-2.8
				c0-0.7,0-1.3,0-1.8c0-0.5,0-1,0-1.6c0-0.4,0-0.9,0-1.4s0-1-0.1-1.5c0.2,0,0.4,0,0.7,0.1c0.3,0,0.5,0,0.8,0c0.3,0,0.6,0,0.8,0
				c0.3,0,0.5,0,0.7-0.1c-0.1,0.7-0.2,1.6-0.2,2.5s0,2,0,3.2c0,0.8,0.1,1.5,0.4,1.8c0.3,0.4,0.7,0.6,1.2,0.6c0.6,0,1-0.3,1.3-0.8
				c0.3-0.5,0.4-1.2,0.4-2.2v-0.8c0-0.8,0-1.6,0-2.3c0-0.7-0.1-1.4-0.1-2.2c0.4,0.1,0.9,0.1,1.5,0.1c0.3,0,0.6,0,0.8,0
				c0.3,0,0.5,0,0.7-0.1c-0.1,0.7-0.1,1.4-0.1,2.2c0,0.7,0,1.5,0,2.3v0.8c0,0.8,0,1.6,0,2.3c0,0.7,0.1,1.4,0.1,2.1
				c-0.2,0-0.5,0-0.7,0c-0.2,0-0.5,0-0.7,0c-0.2,0-0.5,0-0.7,0c-0.2,0-0.5,0-0.8,0L31.8,16.7L31.8,16.7z"/>
			<path class="st1" d="M39.6,10c0.4-0.6,0.8-1,1.3-1.3s1.1-0.5,1.7-0.5c1,0,1.8,0.3,2.3,0.9s0.8,1.5,0.8,2.8c0,0.7,0,1.3,0,1.8
				c0,0.5,0,1,0,1.6c0,0.4,0,0.9,0,1.4c0,0.5,0,1,0.1,1.4c-0.2,0-0.4,0-0.7,0s-0.5,0-0.8,0c-0.3,0-0.6,0-0.8,0c-0.3,0-0.5,0-0.7,0
				c0.1-0.7,0.2-1.5,0.2-2.4c0-0.9,0-2,0-3.2c0-0.8-0.1-1.5-0.4-1.8c-0.3-0.4-0.7-0.6-1.2-0.6c-0.6,0-1,0.3-1.3,0.8
				c-0.3,0.5-0.4,1.2-0.4,2.2v0.8c0,0.8,0,1.6,0,2.3c0,0.7,0.1,1.4,0.1,2.1c-0.2,0-0.4,0-0.6,0c-0.3,0-0.5,0-0.9,0
				c-0.3,0-0.6,0-0.8,0c-0.3,0-0.5,0-0.7,0c0.1-0.7,0.1-1.4,0.1-2.1c0-0.7,0-1.5,0-2.3v-0.8c0-0.8,0-1.6,0-2.3
				c0-0.7-0.1-1.4-0.1-2.2c0.2,0,0.5,0,0.7,0.1c0.2,0,0.5,0,0.7,0c0.2,0,0.5,0,0.7,0c0.2,0,0.5,0,0.8-0.1L39.6,10L39.6,10z"/>
			<path class="st1" d="M53,9.1c0,0.2,0,0.3,0.1,0.5l-1.8,0c0,0.3-0.1,0.7-0.1,1.1c0,0.4,0,0.8,0,1.2c0,0.4,0,0.8,0,1.2
				c0,0.4,0,0.7,0,1c0,0.7,0,1.3,0.1,1.7c0,0.4,0.1,0.8,0.2,1c0.1,0.2,0.2,0.4,0.3,0.5c0.1,0.1,0.3,0.1,0.6,0.1c0.3,0,0.4,0,0.6,0
				s0.2-0.1,0.4-0.2v0.8c-0.3,0.1-0.6,0.2-1,0.3c-0.4,0.1-0.8,0.1-1.2,0.1c-1.7,0-2.5-1-2.5-3c0-0.4,0-0.8,0-1.3s0-1,0.1-1.5
				s0-1,0-1.5s0-1,0-1.4l-1.4,0c0-0.2,0.1-0.3,0.1-0.5c0-0.2,0-0.3-0.1-0.5l1.4,0.1c0-0.4,0-0.8,0-1.2c0-0.4,0-0.8-0.1-1.3
				C49.1,6,49.5,5.8,50,5.6c0.5-0.2,0.9-0.4,1.4-0.7l0.2,0.1c0,0.2-0.1,0.5-0.1,0.8s0,0.6-0.1,0.9c0,0.3,0,0.6,0,1
				c0,0.3,0,0.6,0,0.9l1.8,0C53.1,8.8,53,9,53,9.1z"/>
			<path class="st1" d="M57.1,13.3c0,0.5,0.1,1,0.2,1.5c0.1,0.5,0.3,0.9,0.5,1.2s0.5,0.6,0.8,0.8c0.3,0.2,0.7,0.3,1.2,0.3
				c0.9,0,1.7-0.3,2.5-0.9l0.2,0.2L62,17.5c-0.3,0.3-0.7,0.5-1.2,0.6c-0.5,0.2-1.1,0.2-1.8,0.2c-0.7,0-1.3-0.1-1.9-0.3
				c-0.6-0.2-1.1-0.5-1.6-0.9c-0.4-0.4-0.8-0.9-1.1-1.6c-0.3-0.6-0.4-1.4-0.4-2.3c0-0.9,0.1-1.6,0.3-2.3c0.2-0.6,0.6-1.2,1-1.6
				c0.4-0.4,0.9-0.7,1.5-1c0.6-0.2,1.2-0.3,1.8-0.3c1.3,0,2.3,0.4,3,1.2c0.7,0.8,1,1.9,1,3.3v0.4c0,0.1,0,0.2,0,0.2H57.1z
				 M60.1,12.4c0-1-0.2-1.8-0.4-2.4c-0.2-0.6-0.6-0.9-1.1-0.9c-0.3,0-0.5,0.1-0.7,0.3s-0.4,0.5-0.5,0.8c-0.1,0.3-0.2,0.7-0.3,1.1
				s-0.1,0.8-0.1,1.2H60.1z"/>
			<path class="st1" d="M67.4,11c0.3-0.9,0.8-1.6,1.3-2c0.5-0.4,1.1-0.7,1.8-0.7c0.1,0,0.1,0,0.2,0c0,0,0.1,0,0.1,0
				c0,0.2-0.1,0.4-0.1,0.6s0,0.5,0,0.8v0.6c0,0.1,0,0.2,0,0.3c0,0.1,0,0.2,0,0.3l-0.2,0.2c-0.1-0.1-0.3-0.1-0.5-0.2
				c-0.2-0.1-0.4-0.1-0.6-0.1c-0.6,0-1.1,0.2-1.4,0.6c-0.3,0.4-0.5,0.9-0.5,1.4v0.8c0,0.8,0,1.6,0,2.3c0,0.7,0.1,1.4,0.1,2.1
				c-0.2,0-0.4,0-0.7,0c-0.3,0-0.5,0-0.8,0c-0.3,0-0.6,0-0.8,0s-0.5,0-0.7,0c0.1-0.7,0.1-1.4,0.1-2.1c0-0.7,0-1.5,0-2.3v-0.8
				c0-0.8,0-1.6,0-2.3c0-0.7-0.1-1.4-0.1-2.2c0.2,0,0.5,0,0.7,0.1c0.2,0,0.5,0,0.7,0c0.2,0,0.5,0,0.7,0c0.2,0,0.5,0,0.7-0.1L67.4,11
				L67.4,11z"/>
			<path class="st1" d="M82,5.3c-0.6,0-1.1,0.2-1.5,0.5C80.2,6.2,80,6.7,80,7.1c0,0.5,0.1,0.9,0.4,1.2c0.3,0.3,0.7,0.6,1.1,0.8
				C82,9.4,82.5,9.7,83,9.9c0.5,0.2,1,0.5,1.5,0.9c0.5,0.3,0.8,0.8,1.1,1.2c0.3,0.5,0.4,1.1,0.4,1.9c0,0.7-0.1,1.3-0.4,1.8
				s-0.6,1-1.1,1.4s-1,0.7-1.7,0.9c-0.6,0.2-1.4,0.3-2.2,0.3c-0.7,0-1.4-0.1-1.9-0.2c-0.6-0.2-1-0.3-1.3-0.6
				c0.1-0.5,0.2-0.9,0.3-1.3c0.1-0.4,0.2-0.8,0.2-1.3h0.4c0.1,0.3,0.2,0.6,0.3,0.8c0.1,0.3,0.3,0.5,0.6,0.7c0.2,0.2,0.5,0.4,0.8,0.5
				c0.3,0.1,0.7,0.2,1.1,0.2c0.8,0,1.4-0.2,1.8-0.6s0.6-0.9,0.6-1.4c0-0.5-0.1-0.9-0.4-1.2S82.5,13.3,82,13
				c-0.4-0.2-0.9-0.5-1.4-0.7c-0.5-0.2-1-0.5-1.4-0.8s-0.8-0.7-1.1-1.2s-0.4-1.1-0.4-1.9c0-0.7,0.1-1.3,0.4-1.8c0.2-0.5,0.6-1,1-1.3
				c0.4-0.4,0.9-0.6,1.4-0.8c0.5-0.2,1.1-0.3,1.7-0.3c0.7,0,1.4,0.1,1.9,0.3c0.5,0.2,1,0.4,1.4,0.7c-0.1,0.3-0.2,0.6-0.3,0.9
				c-0.1,0.3-0.2,0.6-0.3,1.1h-0.3C84,5.9,83.2,5.3,82,5.3z"/>
			<path class="st1" d="M88,15.4c0-1.3,0-2.5,0-3.6c0-1.1-0.1-2.2-0.1-3.3c0.2,0,0.5,0,0.7,0.1c0.2,0,0.5,0,0.7,0c0.2,0,0.5,0,0.7,0
				c0.2,0,0.5,0,0.7-0.1c0,0.2-0.1,0.5-0.1,0.8c0,0.3,0,0.6,0,0.9h0c0.2-0.6,0.5-1,1-1.4c0.5-0.4,1.1-0.6,1.8-0.6
				c0.5,0,1,0.1,1.5,0.3c0.5,0.2,0.9,0.5,1.2,0.9c0.4,0.4,0.6,0.9,0.9,1.5c0.2,0.6,0.3,1.4,0.3,2.2c0,0.9-0.1,1.8-0.3,2.4
				c-0.2,0.7-0.5,1.2-0.9,1.6s-0.8,0.7-1.3,0.9c-0.5,0.2-1,0.3-1.5,0.3c-0.6,0-1.1-0.1-1.6-0.3s-0.8-0.6-1-1.1h0v1.6
				c0,0.5,0,0.9,0,1.4c0,0.5,0,1,0,1.4s0,0.8,0.1,1.2c0,0.3,0,0.6,0.1,0.8c-0.2,0-0.4,0-0.7-0.1c-0.3,0-0.5,0-0.8,0
				c-0.3,0-0.6,0-0.8,0c-0.3,0-0.5,0-0.7,0.1c0-0.6,0-1.1,0.1-1.7s0-1.1,0.1-1.7c0-0.6,0-1.1,0-1.7c0-0.6,0-1.2,0-1.8V15.4z
				 M94.3,13.2c0-1.3-0.2-2.3-0.5-2.9c-0.3-0.6-0.8-0.9-1.3-0.9c-0.3,0-0.5,0.1-0.7,0.2c-0.2,0.1-0.4,0.4-0.6,0.7
				c-0.2,0.3-0.3,0.7-0.4,1.3c-0.1,0.5-0.2,1.2-0.2,1.9c0,1.2,0.2,2.1,0.5,2.7c0.3,0.6,0.8,0.9,1.4,0.9c0.6,0,1-0.3,1.4-0.9
				C94.1,15.5,94.3,14.5,94.3,13.2z"/>
			<path class="st1" d="M99.1,9.6c0.6-0.5,1.2-0.8,1.8-1c0.6-0.2,1.3-0.4,1.9-0.4c0.5,0,1,0.1,1.5,0.2c0.4,0.1,0.8,0.3,1.2,0.6
				s0.6,0.6,0.8,1c0.2,0.4,0.3,0.9,0.3,1.5c0,0.9,0,1.6,0,2.4s0,1.5,0,2.2c0,0.3,0,0.6,0.1,0.8s0.1,0.3,0.2,0.4
				c0.1,0.1,0.2,0.2,0.4,0.2c0.2,0,0.3,0,0.5,0v0.5c-0.4,0.2-0.7,0.3-1,0.4c-0.3,0.1-0.6,0.1-0.9,0.1c-0.5,0-0.9-0.1-1.2-0.4
				c-0.3-0.2-0.5-0.6-0.7-1c-0.3,0.4-0.7,0.8-1.1,1c-0.4,0.3-0.9,0.4-1.5,0.4c-0.5,0-0.9-0.1-1.3-0.2s-0.7-0.3-0.9-0.6
				c-0.2-0.2-0.4-0.5-0.5-0.8c-0.1-0.3-0.2-0.6-0.2-0.9c0-0.4,0.1-0.8,0.2-1.1s0.3-0.6,0.6-0.8c0.3-0.2,0.6-0.4,0.9-0.6
				c0.4-0.2,0.8-0.3,1.2-0.4c0.6-0.1,1-0.2,1.3-0.4c0.3-0.1,0.6-0.2,0.7-0.3s0.3-0.2,0.3-0.3c0-0.1,0.1-0.3,0.1-0.4
				c0-0.5-0.2-0.9-0.5-1.2c-0.3-0.3-0.8-0.5-1.4-0.5c-0.2,0-0.5,0-0.7,0.1c-0.2,0.1-0.5,0.1-0.7,0.2c-0.2,0.1-0.4,0.2-0.6,0.3
				c-0.2,0.1-0.3,0.3-0.4,0.4h-0.1L99.1,9.6z M103.8,15.1c0-0.6,0-1,0-1.3c0-0.3,0-0.6,0-0.8c-0.3,0.2-0.6,0.3-0.9,0.4
				c-0.3,0.1-0.6,0.2-0.9,0.4c-0.3,0.2-0.5,0.4-0.6,0.6c-0.2,0.3-0.2,0.7-0.2,1.2c0,0.5,0.1,0.9,0.3,1.1s0.5,0.4,0.8,0.4
				c0.4,0,0.8-0.2,1.1-0.5C103.7,16.2,103.8,15.7,103.8,15.1z"/>
			<path class="st1" d="M115.6,9.8c-0.3-0.4-0.8-0.6-1.4-0.6c-0.8,0-1.4,0.4-1.8,1.1s-0.6,1.7-0.6,3c0,1.2,0.3,2.1,0.8,2.8
				c0.5,0.6,1.2,1,2.2,1c0.4,0,0.8-0.1,1.2-0.3c0.4-0.2,0.7-0.4,0.9-0.7l0.2,0.2c-0.1,0.2-0.2,0.4-0.2,0.6c-0.1,0.2-0.1,0.4-0.2,0.6
				c-0.3,0.2-0.7,0.4-1.1,0.6c-0.4,0.2-1,0.2-1.6,0.2c-1,0-1.8-0.1-2.5-0.4c-0.7-0.3-1.2-0.7-1.6-1.1c-0.4-0.5-0.7-1-0.9-1.6
				c-0.2-0.6-0.3-1.2-0.3-1.8c0-0.7,0.1-1.4,0.4-2c0.2-0.6,0.6-1.2,1.1-1.6s1-0.8,1.7-1.1s1.4-0.4,2.2-0.4c0.8,0,1.4,0.1,1.9,0.3
				s1,0.4,1.5,0.7c-0.2,0.3-0.3,0.6-0.5,1c-0.1,0.4-0.2,0.8-0.3,1.1h-0.5C116.1,10.6,115.9,10.2,115.6,9.8z"/>
			<path class="st1" d="M121.5,13.3c0,0.5,0.1,1,0.2,1.5c0.1,0.5,0.3,0.9,0.5,1.2s0.5,0.6,0.8,0.8c0.3,0.2,0.7,0.3,1.2,0.3
				c0.9,0,1.7-0.3,2.5-0.9l0.2,0.2l-0.4,1.1c-0.3,0.3-0.7,0.5-1.2,0.6c-0.5,0.2-1.1,0.2-1.8,0.2c-0.7,0-1.3-0.1-1.9-0.3
				c-0.6-0.2-1.1-0.5-1.6-0.9c-0.4-0.4-0.8-0.9-1.1-1.6c-0.3-0.6-0.4-1.4-0.4-2.3c0-0.9,0.1-1.6,0.3-2.3c0.2-0.6,0.6-1.2,1-1.6
				c0.4-0.4,0.9-0.7,1.5-1c0.6-0.2,1.2-0.3,1.8-0.3c1.3,0,2.3,0.4,3,1.2c0.7,0.8,1,1.9,1,3.3v0.4c0,0.1,0,0.2,0,0.2H121.5z
				 M124.6,12.4c0-1-0.2-1.8-0.4-2.4c-0.2-0.6-0.6-0.9-1.1-0.9c-0.3,0-0.5,0.1-0.7,0.3s-0.4,0.5-0.5,0.8c-0.1,0.3-0.2,0.7-0.3,1.1
				s-0.1,0.8-0.1,1.2H124.6z"/>
		</g>
	</g>
</g>
</svg>
