<?xml version="1.0" encoding="utf-8"?>
<!-- Generator: Adobe Illustrator 25.4.1, SVG Export Plug-In . SVG Version: 6.00 Build 0)  -->
<svg version="1.1" id="レイヤー_1" xmlns="http://www.w3.org/2000/svg" xmlns:xlink="http://www.w3.org/1999/xlink" x="0px"
	 y="0px" viewBox="0 0 1080 2410" style="enable-background:new 0 0 1080 2410;" xml:space="preserve">
<style type="text/css">
	.st0{clip-path:url(#SVGID_00000023254978467381494980000001179935235638151590_);}
	.st1{fill:#FFFFFF;}
	.st2{fill:#4B473B;}
</style>
<g>
	<defs>
		<rect id="SVGID_1_" width="1080" height="2410"/>
	</defs>
	<clipPath id="SVGID_00000163040358763955978660000007536065348169172902_">
		<use xlink:href="#SVGID_1_"  style="overflow:visible;"/>
	</clipPath>
	<g style="clip-path:url(#SVGID_00000163040358763955978660000007536065348169172902_);">
		<g id="OPPO_A54_5G_1">
			<rect class="st1" width="1080" height="2289"/>
			<path id="variable_haikei" class="st2" d="M0,1624.4h1080V2410H0V1624.4z"/>
			<g id="Weight">
				<g>
					<path class="st1" d="M180.3,1711.3c-0.9,2.6-1.9,5.2-2.8,7.9s-1.9,5.3-2.8,7.9s-1.7,4.9-2.3,6.9c-0.9-0.1-2-0.1-3.1-0.1h-1.6
						c-0.5,0-1.1,0-1.6,0.1c-0.4-1.7-1-3.8-1.8-6.5s-1.5-5.4-2.4-8.4s-1.7-6-2.6-9s-1.7-5.8-2.5-8.3s-1.4-4.7-2-6.4s-0.9-2.9-1-3.3
						l2.6,0.2c0.9,0.1,1.7,0.1,2.5,0.1s1.6,0,2.5-0.1s1.7-0.1,2.5-0.2c0.6,2.6,1.3,5.3,2,8c0.7,2.7,1.4,5.4,2.1,8.1l2.1,7.8
						c0.7,2.5,1.3,4.8,1.9,6.9h0.1c0.9-2.6,1.9-5.3,2.9-8.3s2.1-5.9,3-8.8s1.9-5.5,2.7-7.9s1.4-4.3,1.9-5.8l1.5,0.2
						c1,0.1,2,0.1,3.1,0l1.5-0.2c0.2,1.2,0.5,2.4,0.9,3.6c0.4,1.5,1,3.2,1.6,5c0.6,1.8,1.2,3.8,1.9,5.8c0.7,2,1.3,4.1,2,6
						s1.3,3.9,1.9,5.7s1,3.4,1.4,4.7h0.1c0.8-2.6,1.7-5.4,2.6-8.5c0.9-3.1,1.8-6.1,2.6-9s1.6-5.5,2.3-7.9s1.2-4.2,1.5-5.4
						c0.8,0.2,1.7,0.3,2.6,0.3c0.5,0,0.9,0,1.4-0.1l1.4-0.2c-0.3,0.8-0.7,2-1.3,3.8s-1.3,3.8-2.1,6.2s-1.7,5-2.6,7.8
						s-1.9,5.6-2.8,8.5s-1.8,5.6-2.7,8.3s-1.6,5.2-2.3,7.3c-0.9-0.1-2-0.1-3.1-0.1h-1.6c-0.5,0-1.1,0-1.6,0.1
						c-1.3-5-2.8-9.9-4.4-14.8c-1.6-4.9-3.4-9.9-5.2-15h-0.1C182.1,1706.4,181.2,1708.8,180.3,1711.3z"/>
					<path class="st1" d="M222.3,1719.5c0,1.5,0.2,3.1,0.5,4.6c0.3,1.3,0.8,2.6,1.5,3.7c0.6,1,1.5,1.8,2.6,2.4
						c1.1,0.6,2.4,0.9,3.6,0.9c2.8,0,5.4-1,7.5-2.7l0.7,0.6l-1.3,3.4c-1.1,0.8-2.3,1.5-3.7,1.9c-1.8,0.5-3.7,0.8-5.6,0.7
						c-1.9,0-3.8-0.3-5.7-0.8c-1.8-0.5-3.4-1.5-4.7-2.7c-1.4-1.3-2.5-3-3.2-4.8c-0.8-2.2-1.2-4.6-1.2-6.9c0-2.3,0.3-4.7,1.1-6.9
						c0.6-1.8,1.7-3.5,3-4.9c1.3-1.3,2.8-2.3,4.5-2.9c1.8-0.7,3.7-1,5.6-1c4,0,7.1,1.2,9.2,3.5c2.2,2.4,3.2,5.7,3.2,10v1.3
						c0,0.2,0,0.5-0.1,0.7L222.3,1719.5z M231.7,1716.8c0-2.5-0.4-5-1.1-7.3c-0.7-1.8-1.8-2.8-3.4-2.8c-0.8,0-1.7,0.3-2.3,0.9
						c-0.6,0.7-1.1,1.5-1.5,2.3c-0.4,1-0.7,2.1-0.8,3.2c-0.2,1.2-0.3,2.4-0.3,3.6H231.7z"/>
					<path class="st1" d="M245.4,1693.2c0-2.6,2.2-4.8,4.8-4.7s4.8,2.2,4.7,4.8c0,2.6-2.2,4.8-4.8,4.7c-1.3,0-2.5-0.5-3.3-1.4
						C245.9,1695.8,245.4,1694.5,245.4,1693.2z M246.2,1718.3c0-2.5,0-4.8-0.1-7s-0.2-4.4-0.4-6.6c0.6,0.1,1.2,0.2,2,0.2
						s1.6,0.1,2.6,0.1c1.5,0,3.1-0.1,4.6-0.3c-0.2,2.2-0.3,4.4-0.4,6.6s-0.1,4.5-0.1,7v2.4c0,2.5,0,4.8,0.1,7s0.2,4.3,0.4,6.3
						c-0.7-0.1-1.3-0.1-2-0.1h-5.1c-0.7,0-1.3,0-2,0.1c0.2-2,0.3-4.2,0.4-6.3s0.1-4.5,0.1-7L246.2,1718.3z"/>
					<path class="st1" d="M282.7,1707.1c1,0.7,1.8,1.7,2.4,2.8c0.6,1.2,0.9,2.6,0.9,4c0,1.4-0.3,2.8-0.9,4.1
						c-0.6,1.2-1.4,2.3-2.4,3.2c-1.1,0.9-2.4,1.6-3.7,2.1c-1.6,0.5-3.2,0.8-4.9,0.7c-0.5,0-0.9,0-1.3,0s-0.9,0-1.4,0
						c-0.5,0-1,0.3-1.2,0.7c-0.3,0.4-0.5,1-0.5,1.5c0,0.9,0.4,1.8,1.1,2.3c1.1,0.7,2.3,1,3.6,0.9l4.5,0.1c3.4,0,5.9,0.7,7.5,1.9
						s2.4,3.2,2.4,5.9c0.1,2.1-0.4,4.3-1.5,6.1c-1,1.6-2.3,3-3.9,4c-1.6,1-3.4,1.8-5.2,2.2c-1.8,0.4-3.7,0.7-5.5,0.7
						c-3.8,0-6.8-0.7-8.9-2.2c-3.3-2.3-4.2-6.8-1.9-10.1c0.1-0.2,0.2-0.3,0.4-0.5c1.2-1.3,2.7-2.3,4.4-2.8v-0.1
						c-1-0.3-1.9-0.9-2.5-1.7c-0.6-0.8-1-1.8-0.9-2.8c0-1.4,0.6-2.8,1.5-3.9c1.1-1.3,2.5-2.2,4.1-2.6v-0.1c-2.2-0.5-4.2-1.6-5.7-3.3
						c-1.4-1.8-2.2-4-2.1-6.3c0-1.4,0.3-2.9,1-4.2c0.6-1.2,1.5-2.3,2.6-3.1c1.2-0.9,2.6-1.5,4.1-1.9c1.7-0.5,3.5-0.7,5.2-0.7
						c0.7,0,1.5,0,2.3,0.1l2.3,0.2c0.5,0,1.1,0.1,1.6,0.1c0.5,0,1.1,0,1.8,0c1,0,2.1,0,3.2,0s2.2,0,3.3,0c0,0.2-0.1,0.5-0.1,0.7
						s0,0.5,0,0.7s0,0.5,0,0.7s0,0.5,0.1,0.7l-5.4-0.2L282.7,1707.1z M281.7,1740.6c0-1-0.2-2-0.6-2.9c-0.4-0.7-1-1.3-1.7-1.7
						c-0.9-0.4-1.8-0.7-2.8-0.8c-1.2-0.1-2.5-0.2-3.7-0.2c-1.5-0.1-3,0.1-4.4,0.6c-0.7,0.4-1.2,1-1.6,1.8c-1,2.1-1.1,4.5-0.2,6.6
						c0.4,0.8,1,1.6,1.7,2.2c0.8,0.6,1.6,1,2.5,1.3c1,0.3,2,0.5,3.1,0.5c1.1,0,2.2-0.2,3.2-0.6c0.9-0.4,1.7-0.9,2.4-1.6
						c0.7-0.7,1.2-1.4,1.5-2.3C281.5,1742.5,281.7,1741.5,281.7,1740.6L281.7,1740.6z M273.6,1706.5c-2.8,0-4.1,2.7-4.1,8
						c0,1.1,0.1,2.3,0.4,3.4c0.2,0.8,0.5,1.5,0.9,2.2c0.3,0.5,0.8,0.9,1.3,1.2c0.4,0.2,0.9,0.4,1.4,0.4c1.3,0.1,2.4-0.6,3-1.8
						c0.7-1.2,1-3.2,1-6s-0.4-4.8-1.1-5.8C275.8,1707.1,274.8,1706.5,273.6,1706.5L273.6,1706.5z"/>
					<path class="st1" d="M292.8,1698.2c-0.1-3.3-0.2-6.7-0.4-10.1c0.5,0.1,1.2,0.1,2,0.2c0.8,0.1,1.7,0.1,2.6,0.1s1.8,0,2.6-0.1
						s1.5-0.1,2-0.2c-0.2,3.4-0.3,6.8-0.4,10.1s-0.1,7-0.1,11l0.1,0.1c1-1.6,2.3-3,3.9-4c1.6-0.9,3.4-1.4,5.2-1.4c3,0,5.4,0.9,7,2.7
						c1.7,1.8,2.5,4.6,2.5,8.6c0,2.1,0,3.9-0.1,5.5c-0.1,1.6-0.1,3.2-0.1,4.8c0,1.3,0,2.7,0.1,4.2s0.1,3,0.2,4.4
						c-0.7-0.1-1.3-0.1-2-0.1h-5.1c-0.7,0-1.3,0-2,0.1c0.3-2.5,0.5-5,0.5-7.5c0.1-2.9,0.1-6.2,0.1-9.8c0-2.6-0.4-4.4-1.3-5.6
						c-0.8-1.2-2.2-1.9-3.7-1.8c-1.7-0.1-3.3,0.9-4,2.4c-1,2.1-1.4,4.3-1.3,6.6v2.4c0,0.6,0,1.4,0,2.5s0,2.3,0.1,3.5
						s0.1,2.6,0.2,3.9s0.1,2.5,0.2,3.4c-0.7-0.1-1.3-0.1-2-0.1h-5.1c-0.7,0-1.3,0-2,0.1c0.2-3.3,0.3-6.6,0.4-9.9s0.1-7,0.1-11v-4
						C293,1705.2,292.9,1701.6,292.8,1698.2z"/>
					<path class="st1" d="M342.2,1706.7c0,0.5,0.1,1,0.2,1.5l-5.4-0.1c-0.1,0.9-0.1,2-0.2,3.2s-0.1,2.5-0.1,3.7s0,2.5-0.1,3.7
						s0,2.2,0,3c0,2.1,0,3.8,0.2,5.1c0,1,0.2,2,0.5,3c0.2,0.6,0.5,1.1,1,1.4c0.5,0.3,1.1,0.4,1.7,0.4c0.6,0,1.1,0,1.7-0.2
						c0.4-0.1,0.8-0.3,1.1-0.5v2.5c-1,0.4-2,0.8-3,1c-1.2,0.3-2.4,0.4-3.6,0.4c-5.2,0-7.8-3.1-7.8-9.3c0-1.2,0-2.5,0.1-4
						c0-1.5,0.1-3,0.1-4.6s0.1-3.1,0.2-4.6s0.1-2.9,0.1-4.2l-4.3,0.1c0.1-0.5,0.2-1,0.2-1.5c0-0.6-0.1-1.1-0.2-1.6l4.3,0.2
						c0-1.3,0-2.4-0.1-3.5c0-1.1-0.1-2.4-0.2-4c1.4-0.6,2.8-1.2,4.2-1.8c1.4-0.6,2.8-1.3,4.1-2l0.6,0.4c-0.1,0.7-0.1,1.4-0.2,2.3
						s-0.1,1.8-0.2,2.7s-0.1,1.9-0.1,2.9s0,1.9,0,2.8l5.4-0.1C342.3,1705.6,342.3,1706.2,342.2,1706.7z"/>
				</g>
			</g>
			<g id=":">
				<g>
					<path class="st1" d="M362.8,1710.7c0-0.9,0.3-1.7,0.9-2.3c1.2-1.2,3.3-1.3,4.5,0c0,0,0,0,0,0c1.3,1.2,1.3,3.3,0,4.5
						s-3.3,1.3-4.5,0C363.1,1712.4,362.8,1711.6,362.8,1710.7z M362.8,1723.5c0-1.8,1.4-3.2,3.2-3.2c1.8,0,3.2,1.4,3.2,3.2
						c0,0.8-0.3,1.6-0.9,2.2c-1.3,1.2-3.2,1.2-4.5,0C363.1,1725.1,362.8,1724.3,362.8,1723.5z"/>
				</g>
			</g>
			<g id=":-2">
				<g>
					<path class="st1" d="M516.8,1945.7c0-0.9,0.3-1.7,0.9-2.3c1.2-1.2,3.3-1.3,4.5,0c0,0,0,0,0,0c1.3,1.2,1.3,3.3,0,4.5
						c-1.2,1.3-3.3,1.3-4.5,0C517.1,1947.4,516.8,1946.6,516.8,1945.7z M516.8,1958.5c0-1.8,1.4-3.2,3.2-3.2s3.2,1.4,3.2,3.2l0,0
						c0,0.8-0.3,1.6-0.9,2.2c-1.3,1.2-3.2,1.2-4.5,0C517.1,1960.1,516.8,1959.3,516.8,1958.5z"/>
				</g>
			</g>
			<g id="Counter_Space">
				<g>
					<path class="st1" d="M186.7,1962.3c-0.2,0.8-0.4,1.5-0.4,2.3c-3.4,1.6-7.2,2.3-11,2.2c-2.9,0-5.7-0.4-8.4-1.3
						c-2.3-0.8-4.5-2.1-6.3-3.7c-1.7-1.6-3-3.5-3.9-5.7c-0.9-2.3-1.4-4.7-1.4-7.1c-0.1-3.3,0.5-6.5,1.8-9.5c1.1-2.5,2.7-4.6,4.7-6.4
						c2-1.7,4.3-2.9,6.8-3.6c2.6-0.8,5.4-1.1,8.1-1.1c1,0,2,0.1,3,0.2c1,0.2,2,0.3,3,0.6c0.9,0.2,1.9,0.5,2.8,0.8
						c0.8,0.3,1.5,0.6,2.2,1c-0.4,0.9-0.6,1.8-0.8,2.7c-0.2,0.9-0.3,1.8-0.4,2.8h-0.8c-1.1-1.5-2.6-2.8-4.2-3.7
						c-1.6-0.8-3.3-1.1-5.1-1.1c-1.5,0-3,0.4-4.4,1c-1.5,0.7-2.9,1.7-4,3c-1.3,1.5-2.3,3.2-2.9,5.1c-0.8,2.4-1.2,4.9-1.1,7.4
						c-0.1,2.4,0.3,4.8,1.1,7.1c0.7,1.8,1.7,3.4,3,4.8c1.1,1.2,2.5,2.1,4.1,2.7c1.5,0.6,3,0.9,4.6,0.9c0.9,0,1.8-0.1,2.6-0.3
						c0.9-0.2,1.8-0.5,2.6-0.8c0.9-0.3,1.7-0.8,2.5-1.3c0.7-0.5,1.4-1,2-1.7l0.7,0.4C187.2,1960.8,186.9,1961.5,186.7,1962.3z"/>
					<path class="st1" d="M191.2,1953.8c0-2.2,0.3-4.3,1.1-6.3c0.7-1.7,1.7-3.2,2.9-4.5c1.2-1.2,2.7-2.1,4.2-2.7
						c1.6-0.6,3.3-0.9,4.9-0.9c4.2,0,7.5,1.2,9.8,3.6c2.3,2.4,3.4,5.6,3.4,9.7c0,2-0.3,4-1,5.9c-0.6,1.7-1.5,3.2-2.7,4.5
						c-1.2,1.2-2.6,2.2-4.2,2.8c-1.7,0.6-3.5,0.9-5.4,0.9c-1.6,0-3.2-0.2-4.8-0.7c-1.6-0.4-3-1.2-4.2-2.2c-1.3-1.1-2.3-2.5-3-4
						C191.6,1958,191.2,1956,191.2,1953.8z M209.7,1951.8c0.1-2.5-0.3-5-1.2-7.4c-0.6-1.6-2.2-2.7-3.9-2.6c-1.7,0-3,1-3.9,2.9
						c-1,1.9-1.4,5-1.4,9.1c0,1.4,0.1,2.8,0.3,4.2c0.1,1.2,0.4,2.3,0.9,3.4c0.3,0.9,0.9,1.6,1.6,2.2c0.7,0.6,1.6,0.8,2.5,0.8
						C208,1964.5,209.7,1960.3,209.7,1951.8z"/>
					<path class="st1" d="M239,1962.2c-0.9,1.4-2.1,2.6-3.5,3.4c-1.4,0.8-3,1.2-4.6,1.2c-2.3,0.1-4.6-0.7-6.2-2.3
						c-1.5-1.5-2.2-4-2.2-7.5c0-1.8,0-3.5,0.1-4.9s0.1-2.8,0.1-4.2c0-1.2,0-2.4-0.1-3.8s-0.1-2.7-0.2-4.1c0.5,0.1,1.1,0.1,1.8,0.2
						s1.5,0.1,2.3,0.1s1.5,0,2.3-0.1s1.3-0.1,1.8-0.2c-0.3,2.2-0.4,4.5-0.5,6.8c-0.1,2.6-0.1,5.5-0.1,8.8c-0.1,1.7,0.3,3.5,1.2,5
						c0.8,1,2,1.6,3.3,1.6c1.5,0.1,2.9-0.8,3.6-2.1c0.8-1.8,1.2-3.8,1.1-5.8v-2.2c0-2.2,0-4.2-0.1-6.2c-0.1-1.9-0.2-3.9-0.4-5.8
						c1.3,0.2,2.7,0.3,4,0.3c0.8,0,1.6,0,2.3-0.1s1.3-0.1,1.8-0.2c-0.2,1.9-0.3,3.9-0.4,5.8s-0.1,4-0.1,6.2v2.2c0,2.2,0,4.3,0.1,6.2
						c0,2,0.2,3.8,0.4,5.6c-0.6-0.1-1.3-0.1-1.9-0.1h-3.8c-0.6,0-1.3,0-2,0.1l0.2-3.9L239,1962.2z"/>
					<path class="st1" d="M260,1944.2c0.9-1.4,2.1-2.6,3.5-3.5c1.4-0.8,3-1.3,4.6-1.2c2.3-0.1,4.6,0.7,6.2,2.3
						c1.5,1.6,2.2,4.1,2.2,7.6c0,1.8,0,3.4-0.1,4.9s-0.1,2.8-0.1,4.2c0,1.2,0,2.4,0.1,3.8s0.1,2.7,0.2,3.9c-0.6-0.1-1.2-0.1-1.8-0.1
						h-4.5c-0.6,0-1.2,0-1.8,0.1c0.3-1.9,0.4-4.1,0.5-6.6c0.1-2.5,0.1-5.5,0.1-8.7c0.1-1.7-0.3-3.5-1.2-5c-1.4-1.8-4-2.1-5.8-0.7
						c-0.4,0.3-0.8,0.8-1.1,1.3c-0.8,1.8-1.2,3.8-1.1,5.8v2.2c0,2.2,0,4.3,0.1,6.2c0,2,0.2,3.8,0.4,5.6c-0.6-0.1-1.2-0.1-1.8-0.1
						h-4.6c-0.6,0-1.2,0-1.8,0.1c0.2-1.8,0.3-3.7,0.4-5.6s0.1-4,0.1-6.2v-2.2c0-2.2,0-4.2-0.1-6.2s-0.2-3.9-0.4-5.8
						c0.6,0.1,1.3,0.1,1.9,0.2s1.3,0.1,1.9,0.1s1.3,0,1.9-0.1s1.3-0.1,2-0.2l-0.2,4L260,1944.2z"/>
					<path class="st1" d="M296.4,1941.9c0,0.5,0.1,0.9,0.2,1.3l-4.8-0.1c-0.1,0.8-0.1,1.8-0.2,2.9s-0.1,2.2-0.1,3.3s0,2.2-0.1,3.2
						s0,1.9,0,2.7c0,1.9,0,3.4,0.1,4.5c0,0.9,0.2,1.8,0.5,2.7c0.1,0.5,0.5,1,0.9,1.2c0.5,0.2,1,0.3,1.5,0.3c0.5,0,1,0,1.5-0.1
						c0.3-0.1,0.7-0.2,1-0.4v2.2c-0.9,0.4-1.8,0.7-2.7,0.9c-1,0.2-2.1,0.4-3.2,0.4c-4.6,0-6.9-2.7-6.9-8.2c0-1,0-2.2,0-3.5
						s0.1-2.7,0.1-4s0.1-2.8,0.1-4.1s0.1-2.6,0.1-3.8h-3.8c0.1-0.4,0.2-0.9,0.2-1.3c0-0.5-0.1-1-0.2-1.5l3.8,0.2
						c0-1.1,0-2.2-0.1-3.1s-0.1-2.1-0.2-3.5c1.3-0.5,2.5-1,3.7-1.6s2.5-1.1,3.7-1.8l0.5,0.4c-0.1,0.6-0.1,1.3-0.2,2
						s-0.1,1.6-0.2,2.4s-0.1,1.7-0.1,2.6s0,1.7,0,2.5l4.8-0.1C296.5,1940.9,296.4,1941.4,296.4,1941.9z"/>
					<path class="st1" d="M307.3,1953.2c0,1.3,0.1,2.7,0.4,4c0.2,1.2,0.7,2.3,1.3,3.3c0.6,0.9,1.3,1.6,2.3,2.2
						c1,0.5,2.1,0.8,3.2,0.8c2.4,0,4.8-0.8,6.6-2.4l0.6,0.5l-1.2,3c-1,0.7-2.1,1.3-3.2,1.7c-1.6,0.5-3.3,0.7-5,0.6
						c-1.7,0-3.4-0.2-5-0.7c-1.6-0.5-3-1.3-4.2-2.4c-1.3-1.2-2.2-2.6-2.9-4.2c-0.7-2-1.1-4-1-6.1c0-2.1,0.3-4.1,0.9-6.1
						c0.6-1.6,1.4-3.1,2.6-4.3c1.1-1.2,2.5-2,4-2.6c1.6-0.6,3.3-0.9,5-0.9c3.6,0,6.3,1,8.2,3.1s2.8,5,2.8,8.9v1.1c0,0.2,0,0.4,0,0.7
						L307.3,1953.2z M315.6,1950.8c0-2.2-0.3-4.4-1-6.5c-0.6-1.6-1.6-2.4-3-2.4c-0.7,0-1.5,0.3-2,0.8c-0.6,0.6-1,1.3-1.3,2.1
						c-0.3,0.9-0.6,1.9-0.7,2.9c-0.2,1-0.3,2.1-0.3,3.2H315.6z"/>
					<path class="st1" d="M335.1,1946.8c0.7-2.1,1.8-4,3.4-5.5c1.3-1.2,3-1.8,4.8-1.8c0.2,0,0.3,0,0.5,0c0.1,0,0.3,0,0.4,0
						c-0.1,0.6-0.2,1.1-0.2,1.7c-0.1,0.6-0.1,1.3-0.1,2.2v2.6c0,0.3,0,0.6,0,0.9l-0.5,0.4c-0.4-0.2-0.8-0.4-1.2-0.5
						c-0.5-0.1-1-0.2-1.5-0.2c-1.5-0.1-2.9,0.5-3.8,1.6c-0.9,1-1.4,2.4-1.4,3.8v2.2c0,2.2,0,4.3,0.1,6.2c0.1,2,0.2,3.8,0.4,5.6
						c-0.6-0.1-1.2-0.1-1.8-0.1h-4.6c-0.6,0-1.2,0-1.8,0.1c0.2-1.8,0.3-3.7,0.4-5.6s0.1-4,0.1-6.2v-2.2c0-2.2,0-4.2-0.1-6.2
						c0-1.9-0.2-3.9-0.4-5.8c0.6,0.1,1.2,0.1,1.9,0.2s1.2,0.1,1.9,0.1s1.2,0,1.9-0.1s1.2-0.1,1.9-0.2l-0.2,6.6L335.1,1946.8z"/>
					<path class="st1" d="M374.7,1931.7c-1.5-0.1-2.9,0.5-4,1.4c-1.9,1.7-2.1,4.7-0.4,6.7c0.9,0.9,1.9,1.7,3,2.3
						c1.2,0.7,2.5,1.3,4,2c1.4,0.6,2.7,1.4,3.9,2.3c1.2,0.9,2.3,2.1,3,3.3c0.9,1.5,1.3,3.3,1.2,5c0,1.7-0.3,3.4-1,4.9
						c-0.7,1.5-1.7,2.8-2.9,3.8c-1.3,1.1-2.9,1.9-4.5,2.4c-1.9,0.6-3.9,0.9-5.9,0.8c-1.8,0-3.5-0.2-5.2-0.6
						c-1.2-0.3-2.4-0.8-3.5-1.5c0.4-1.3,0.7-2.4,0.9-3.5s0.5-2.2,0.6-3.4h1c0.1,0.8,0.4,1.5,0.8,2.2c0.4,0.7,0.9,1.3,1.5,1.9
						c0.7,0.6,1.4,1,2.2,1.3c0.9,0.3,1.9,0.5,2.9,0.4c1.7,0.1,3.5-0.4,4.8-1.6c1-1,1.6-2.4,1.5-3.9c0.1-1.2-0.4-2.4-1.2-3.3
						c-0.9-0.9-1.9-1.7-3-2.3c-1.2-0.7-2.5-1.3-3.9-1.9c-1.4-0.6-2.7-1.4-3.9-2.3c-1.2-0.9-2.2-2-3-3.3c-0.9-1.5-1.3-3.3-1.2-5.1
						c0-1.7,0.3-3.4,1-5c0.6-1.4,1.5-2.6,2.7-3.6c1.1-1,2.4-1.7,3.9-2.2c1.5-0.5,3-0.8,4.6-0.8c1.7,0,3.4,0.2,5.1,0.7
						c1.4,0.4,2.6,1.1,3.8,1.9c-0.3,0.8-0.6,1.6-0.8,2.4s-0.5,1.8-0.9,2.9h-0.8C380.4,1933.4,377.7,1931.5,374.7,1931.7z"/>
					<path class="st1" d="M390.8,1958.8c0-3.5,0-6.8-0.1-9.7c-0.1-3-0.2-6-0.3-9c0.6,0.1,1.2,0.1,1.9,0.2s1.3,0.1,1.9,0.1
						s1.2,0,1.9-0.1s1.2-0.1,1.9-0.2c-0.1,0.6-0.2,1.4-0.2,2.2c-0.1,0.8-0.1,1.6-0.1,2.5h0.1c1.1-3.3,4.2-5.5,7.7-5.3
						c1.4,0,2.7,0.3,3.9,0.8c1.3,0.5,2.4,1.3,3.4,2.4c1,1.2,1.8,2.6,2.3,4.2c0.6,1.9,0.9,4,0.9,6c0.1,2.2-0.3,4.4-0.9,6.5
						c-0.5,1.6-1.3,3.1-2.4,4.4c-0.9,1.1-2.1,1.9-3.4,2.4c-1.3,0.5-2.6,0.7-3.9,0.7c-1.5,0-2.9-0.3-4.2-0.9
						c-1.2-0.6-2.2-1.6-2.8-2.9h-0.1v4.4c0,1.3,0,2.6,0,3.9c0,1.3,0,2.6,0.1,3.8s0.1,2.2,0.1,3.2s0.1,1.6,0.2,2.1
						c-0.5-0.1-1.1-0.1-1.8-0.2s-1.5-0.1-2.3-0.1s-1.5,0-2.3,0.1s-1.3,0.1-1.8,0.2c0.1-1.5,0.1-3,0.2-4.5s0.1-3,0.1-4.5
						s0.1-3,0.1-4.6s0-3.2,0-5L390.8,1958.8z M407.8,1952.9c0-3.6-0.4-6.1-1.3-7.8c-0.6-1.4-2-2.3-3.5-2.4c-0.7,0-1.4,0.2-2,0.6
						c-0.7,0.5-1.3,1.1-1.6,1.9c-0.6,1.1-0.9,2.2-1.2,3.4c-0.3,1.7-0.5,3.4-0.4,5.1c0,3.3,0.4,5.7,1.3,7.3c0.7,1.4,2.1,2.4,3.7,2.3
						c1.6,0,3.1-1,3.7-2.5C407.3,1959.2,407.8,1956.5,407.8,1952.9L407.8,1952.9z"/>
					<path class="st1" d="M420.7,1943.2c1.5-1.2,3.1-2.1,4.9-2.8c1.7-0.6,3.4-1,5.2-1c1.3,0,2.7,0.1,4,0.5c1.1,0.3,2.2,0.8,3.1,1.5
						c0.9,0.7,1.6,1.7,2,2.7c0.5,1.3,0.8,2.6,0.7,4c0,2.3,0,4.4-0.1,6.4c-0.1,2-0.1,3.9-0.1,5.9c0,0.7,0,1.3,0.2,2
						c0.1,0.4,0.3,0.8,0.6,1.1c0.3,0.3,0.6,0.4,1,0.5c0.5,0.1,1,0.1,1.4,0.1v1.3c-0.9,0.4-1.7,0.7-2.6,1c-0.8,0.2-1.5,0.3-2.3,0.3
						c-1.2,0-2.3-0.3-3.2-1c-0.9-0.7-1.5-1.7-1.9-2.8c-0.8,1.1-1.8,2-2.9,2.8c-1.3,0.7-2.7,1.1-4.1,1c-1.2,0-2.4-0.2-3.5-0.5
						c-1.8-0.6-3.2-2-3.8-3.8c-0.3-0.8-0.4-1.7-0.4-2.6c0-1.1,0.2-2.1,0.6-3.1c0.4-0.8,0.9-1.6,1.6-2.2c0.7-0.6,1.6-1.2,2.5-1.5
						c1.1-0.4,2.2-0.8,3.3-1.1c1.5-0.4,2.7-0.7,3.6-0.9c0.7-0.2,1.4-0.5,2-0.8c0.4-0.2,0.7-0.5,0.8-0.9c0.1-0.4,0.2-0.8,0.2-1.2
						c0-1.2-0.5-2.5-1.4-3.3c-1-1-2.4-1.5-3.8-1.4c-0.6,0-1.3,0.1-1.9,0.2c-0.6,0.2-1.3,0.4-1.9,0.7c-0.6,0.3-1.1,0.6-1.6,0.9
						c-0.4,0.3-0.8,0.7-1.1,1.1h-0.4L420.7,1943.2z M433.5,1957.9c0-1.6,0-2.7,0-3.5s0-1.5,0-2.1c-0.8,0.4-1.6,0.7-2.4,1
						c-0.8,0.2-1.6,0.6-2.3,1c-0.7,0.4-1.3,1-1.7,1.7c-0.5,1-0.7,2-0.7,3.1c-0.1,1.1,0.2,2.1,0.8,3c0.5,0.7,1.4,1.1,2.2,1.1
						c1.1,0,2.2-0.5,2.9-1.3C433.1,1960.6,433.5,1959.3,433.5,1957.9L433.5,1957.9z"/>
					<path class="st1" d="M465.4,1943.7c-1-1-2.3-1.6-3.8-1.5c-2.1-0.1-4,1.1-4.9,2.9c-1.2,2.6-1.8,5.4-1.6,8.2c0,3.3,0.7,5.8,2,7.5
						c2.3,2.6,6.1,3.4,9.2,1.8c0.9-0.4,1.7-1,2.3-1.8l0.6,0.5c-0.3,0.5-0.5,1-0.6,1.6l-0.5,1.6c-0.9,0.7-1.9,1.2-3,1.5
						c-1.4,0.4-2.8,0.6-4.3,0.6c-2.3,0.1-4.5-0.3-6.6-1.1c-1.7-0.7-3.2-1.7-4.4-3.1c-1.1-1.3-1.9-2.8-2.4-4.4
						c-0.5-1.6-0.7-3.3-0.7-4.9c0-1.9,0.3-3.8,1-5.5c0.6-1.6,1.6-3.1,2.9-4.4c1.3-1.3,2.8-2.2,4.5-2.9c1.9-0.7,3.9-1.1,5.9-1.1
						c1.8,0,3.5,0.2,5.2,0.7c1.4,0.5,2.8,1.1,4.1,1.8c-0.5,0.8-0.9,1.7-1.2,2.7c-0.4,1-0.6,2-0.8,3h-1.3
						C466.9,1946.2,466.3,1944.8,465.4,1943.7z"/>
					<path class="st1" d="M481.3,1953.2c0,1.3,0.1,2.7,0.4,4c0.2,1.2,0.7,2.3,1.3,3.3c0.6,0.9,1.3,1.6,2.3,2.2
						c1,0.5,2.1,0.8,3.2,0.8c2.4,0,4.8-0.8,6.6-2.4l0.6,0.5l-1.2,3c-1,0.7-2.1,1.3-3.2,1.7c-1.6,0.5-3.3,0.7-5,0.6
						c-1.7,0-3.4-0.2-5-0.7c-1.6-0.5-3-1.3-4.2-2.4c-1.3-1.2-2.2-2.6-2.9-4.2c-0.7-2-1.1-4-1-6.1c0-2.1,0.3-4.1,0.9-6.1
						c0.6-1.6,1.5-3.1,2.6-4.3c1.1-1.2,2.5-2,4-2.6c1.6-0.6,3.3-0.9,5-0.9c3.6,0,6.3,1,8.2,3.1s2.8,5,2.8,8.9v1.1c0,0.2,0,0.4,0,0.7
						L481.3,1953.2z M489.6,1950.8c0-2.2-0.3-4.4-1-6.5c-0.6-1.6-1.6-2.4-3-2.4c-0.7,0-1.5,0.3-2,0.8c-0.6,0.6-1,1.3-1.3,2.1
						c-0.3,0.9-0.6,1.9-0.7,2.9c-0.2,1-0.3,2.1-0.3,3.2H489.6z"/>
				</g>
			</g>
		</g>
	</g>
</g>
</svg>
