<svg id="レイヤー_1" data-name="レイヤー 1" xmlns="http://www.w3.org/2000/svg" xmlns:xlink="http://www.w3.org/1999/xlink" viewBox="0 0 1080 2168"><defs><style>.cls-1{fill:none;}.cls-2{clip-path:url(#clip-path);}.cls-3{fill:#fff;}.cls-4{fill:#4b473b;}.cls-5{isolation:isolate;}</style><clipPath id="clip-path"><rect class="cls-1" width="1080" height="2168"/></clipPath></defs><g class="cls-2"><g id="OPPO_A54_5G_1" data-name="OPPO A54 5G 1"><rect class="cls-3" width="1080" height="2168"/><path id="variable_haikei" data-name="variable haikei" class="cls-4" d="M0,1624.44H1080V2168H0Z"/><g id="Weight" class="cls-5"><g class="cls-5"><path class="cls-3" d="M180.29,1711.34c-.94,2.58-1.88,5.21-2.84,7.9s-1.88,5.33-2.77,7.93-1.67,4.92-2.32,6.95c-.94-.08-2-.12-3.11-.12h-1.59a10.41,10.41,0,0,0-1.58.12c-.45-1.66-1-3.82-1.77-6.46s-1.53-5.45-2.38-8.42-1.73-6-2.62-9-1.73-5.8-2.5-8.33-1.43-4.66-2-6.43-.87-2.86-1-3.26l2.62.21c.85.06,1.69.09,2.5.09s1.64,0,2.47-.09,1.66-.13,2.47-.21q.92,3.9,2,8c.69,2.74,1.4,5.45,2.11,8.11l2.07,7.75q1,3.75,1.86,6.92H172c.9-2.56,1.86-5.34,2.9-8.33s2.05-5.91,3-8.78,1.87-5.51,2.69-7.93,1.44-4.34,1.89-5.76l1.52.21a13,13,0,0,0,3.05,0l1.53-.21a34.24,34.24,0,0,0,.91,3.59q.67,2.26,1.56,5t1.89,5.79c.67,2,1.34,4.05,2,6s1.29,3.88,1.86,5.67,1,3.36,1.4,4.7h.13q1.22-3.84,2.59-8.48c.91-3.09,1.8-6.08,2.65-9s1.63-5.53,2.32-7.93,1.18-4.21,1.46-5.42a13.71,13.71,0,0,0,2.57.3,10.86,10.86,0,0,0,1.37-.09l1.43-.21c-.28.77-.73,2-1.34,3.78s-1.32,3.81-2.13,6.19-1.69,5-2.63,7.78-1.87,5.63-2.8,8.48-1.84,5.63-2.72,8.35-1.64,5.17-2.29,7.32c-.93-.08-2-.12-3.11-.12h-1.58a10.64,10.64,0,0,0-1.59.12q-2-7.44-4.42-14.79t-5.22-15h-.12Q181.7,1707.47,180.29,1711.34Z"/><path class="cls-3" d="M222.32,1719.54a20.23,20.23,0,0,0,.49,4.58,11.38,11.38,0,0,0,1.49,3.69,7.37,7.37,0,0,0,2.56,2.44,7.23,7.23,0,0,0,3.63.88,11.41,11.41,0,0,0,7.51-2.74l.73.55-1.34,3.41a12.11,12.11,0,0,1-3.66,1.86,18.4,18.4,0,0,1-5.62.71,19.2,19.2,0,0,1-5.67-.83,12.16,12.16,0,0,1-4.73-2.71,13.28,13.28,0,0,1-3.23-4.79,18.24,18.24,0,0,1-1.19-6.92,20.17,20.17,0,0,1,1.07-6.9,13.58,13.58,0,0,1,3-4.88,12.2,12.2,0,0,1,4.48-2.93,15.91,15.91,0,0,1,5.64-1q6,0,9.25,3.54t3.2,10v1.28a2.79,2.79,0,0,1-.06.73Zm9.39-2.74a23.65,23.65,0,0,0-1.12-7.32c-.68-1.83-1.8-2.75-3.39-2.75a3.07,3.07,0,0,0-2.26.92,6.49,6.49,0,0,0-1.46,2.35,15.08,15.08,0,0,0-.82,3.23,29.1,29.1,0,0,0-.34,3.57Z"/><path class="cls-3" d="M245.44,1693.25a4.78,4.78,0,1,1,1.4,3.42A4.65,4.65,0,0,1,245.44,1693.25Zm.73,25.07c0-2.48,0-4.8-.09-7s-.19-4.36-.4-6.56c.57.08,1.24.15,2,.21s1.62.1,2.56.1a26.37,26.37,0,0,0,4.57-.31c-.2,2.2-.33,4.38-.39,6.56s-.1,4.5-.1,7v2.44c0,2.48,0,4.82.1,7s.19,4.31.39,6.34a13.61,13.61,0,0,0-2-.12H247.7a14.72,14.72,0,0,0-2,.12c.21-2,.34-4.15.4-6.34s.09-4.54.09-7Z"/><path class="cls-3" d="M282.71,1707.1a7.94,7.94,0,0,1,2.41,2.77,8.49,8.49,0,0,1,.88,4,9.73,9.73,0,0,1-.85,4.12,9.24,9.24,0,0,1-2.41,3.2,10.86,10.86,0,0,1-3.72,2.07,15,15,0,0,1-4.85.74c-.45,0-.88,0-1.31,0s-.91,0-1.44,0a1.56,1.56,0,0,0-1.25.68,2.42,2.42,0,0,0-.51,1.52,2.75,2.75,0,0,0,1.12,2.32,6.25,6.25,0,0,0,3.57.91l4.52.07q5.11.06,7.53,1.92t2.41,5.94a11.76,11.76,0,0,1-1.49,6.14,12.65,12.65,0,0,1-3.85,4,15.87,15.87,0,0,1-5.21,2.23,24.86,24.86,0,0,1-5.55.67q-5.74,0-8.94-2.23a7.29,7.29,0,0,1-1.59-10.61,10.92,10.92,0,0,1,4.36-2.84v-.12a5.7,5.7,0,0,1-2.53-1.68,4.26,4.26,0,0,1-.94-2.83,6.12,6.12,0,0,1,1.55-3.91,7.72,7.72,0,0,1,4.12-2.56v-.12a10.51,10.51,0,0,1-5.73-3.3,9.4,9.4,0,0,1-2.08-6.34,8.9,8.9,0,0,1,.95-4.15,8.71,8.71,0,0,1,2.65-3.08,12.79,12.79,0,0,1,4.09-1.92,19.12,19.12,0,0,1,5.24-.67c.74,0,1.49,0,2.26.09l2.26.15q.8.06,1.62.09c.54,0,1.14,0,1.79,0,1,0,2.08,0,3.18,0s2.19,0,3.29,0c0,.25-.07.49-.09.74s0,.48,0,.73,0,.49,0,.73.05.49.09.73l-5.37-.24Zm-1,33.49a6,6,0,0,0-.61-2.9,4.2,4.2,0,0,0-1.73-1.74,8.13,8.13,0,0,0-2.78-.82,29.69,29.69,0,0,0-3.72-.21,10.79,10.79,0,0,0-4.39.61,4.41,4.41,0,0,0-1.56,1.76,7.9,7.9,0,0,0-.18,6.62,6,6,0,0,0,1.74,2.17,7.89,7.89,0,0,0,2.53,1.31,10.19,10.19,0,0,0,3.08.46,8.37,8.37,0,0,0,3.17-.58,7.34,7.34,0,0,0,2.41-1.59,6.8,6.8,0,0,0,1.53-2.32A7.57,7.57,0,0,0,281.73,1740.59Zm-8.11-34.1q-4.15,0-4.15,8a13.14,13.14,0,0,0,.37,3.39,7.41,7.41,0,0,0,.94,2.22,3.6,3.6,0,0,0,1.29,1.22,3,3,0,0,0,1.43.37,3.2,3.2,0,0,0,3-1.77q1-1.77,1-6t-1.09-5.82A3.23,3.23,0,0,0,273.62,1706.49Z"/><path class="cls-3" d="M292.84,1698.25c-.09-3.33-.21-6.71-.37-10.12q.79.12,2,.21c.82.06,1.67.09,2.56.09s1.75,0,2.57-.09,1.48-.13,2-.21c-.16,3.41-.29,6.79-.37,10.12s-.12,7-.12,11l.12.13a11.9,11.9,0,0,1,3.88-4,9.79,9.79,0,0,1,5.21-1.4q4.57,0,7.05,2.65t2.47,8.57q0,3.12-.12,5.49c-.09,1.59-.13,3.17-.13,4.76,0,1.3,0,2.72.1,4.24s.13,3,.21,4.42a13.87,13.87,0,0,0-2-.12h-5.13a13.87,13.87,0,0,0-2,.12,72.9,72.9,0,0,0,.55-7.47q.12-4.31.12-9.85,0-3.84-1.31-5.64a4.31,4.31,0,0,0-3.69-1.8,4.27,4.27,0,0,0-4,2.38,14.05,14.05,0,0,0-1.28,6.58v2.44c0,.57,0,1.4,0,2.47s0,2.26.09,3.54.1,2.58.16,3.91.13,2.47.21,3.44a13.87,13.87,0,0,0-2-.12h-5.13a13.87,13.87,0,0,0-2,.12c.16-3.29.28-6.61.37-9.94s.12-7,.12-11v-4Q293,1703.26,292.84,1698.25Z"/><path class="cls-3" d="M342.25,1706.73a6.41,6.41,0,0,0,.18,1.53l-5.37-.12c-.08.93-.15,2-.21,3.23s-.1,2.46-.12,3.72-.05,2.48-.07,3.66,0,2.18,0,3c0,2.11.05,3.82.16,5.12a12.44,12.44,0,0,0,.51,3,2.48,2.48,0,0,0,1,1.41,3.61,3.61,0,0,0,1.71.36,7.11,7.11,0,0,0,1.71-.15,4.87,4.87,0,0,0,1.1-.46v2.5a17.15,17.15,0,0,1-3.05,1,16.08,16.08,0,0,1-3.6.43q-7.75,0-7.75-9.28,0-1.77.06-4c0-1.49.09-3,.15-4.58s.11-3.11.16-4.63.06-2.94.06-4.24l-4.27.06a6.41,6.41,0,0,0,.18-1.53,8.62,8.62,0,0,0-.18-1.64l4.27.18q0-1.89-.06-3.54c-.05-1.1-.11-2.42-.19-4q2.14-.86,4.21-1.8c1.38-.63,2.77-1.29,4.15-2l.61.43c-.08.65-.15,1.41-.21,2.29s-.13,1.79-.19,2.74-.1,1.94-.12,2.93,0,1.94,0,2.84l5.37-.12A8.62,8.62,0,0,0,342.25,1706.73Z"/></g></g><g id=":" class="cls-5"><g class="cls-5"><path class="cls-3" d="M362.8,1710.71a3.06,3.06,0,0,1,.94-2.26,3.19,3.19,0,0,1,4.52,0,3.2,3.2,0,1,1-5.46,2.26Zm0,12.79a3.2,3.2,0,0,1,6.4,0,2.89,2.89,0,0,1-.94,2.21,3.34,3.34,0,0,1-4.52,0A2.89,2.89,0,0,1,362.8,1723.5Z"/></g></g><g id=":-2" class="cls-5"><g class="cls-5"><path class="cls-3" d="M516.8,1945.71a3.06,3.06,0,0,1,.94-2.26,3.19,3.19,0,0,1,4.52,0,3.2,3.2,0,1,1-5.46,2.26Zm0,12.79a3.2,3.2,0,0,1,6.4,0,2.89,2.89,0,0,1-.94,2.21,3.34,3.34,0,0,1-4.52,0A2.89,2.89,0,0,1,516.8,1958.5Z"/></g></g><g id="Counter_Space" data-name="Counter Space" class="cls-5"><g class="cls-5"><path class="cls-3" d="M186.71,1962.3a13.69,13.69,0,0,0-.44,2.3,24.33,24.33,0,0,1-11,2.21,24.93,24.93,0,0,1-8.4-1.32,17.83,17.83,0,0,1-6.26-3.73,16,16,0,0,1-3.92-5.7,18.57,18.57,0,0,1-1.35-7.12,23.2,23.2,0,0,1,1.76-9.53,17.38,17.38,0,0,1,4.7-6.38,18.78,18.78,0,0,1,6.83-3.59,29.18,29.18,0,0,1,8.15-1.13,22.29,22.29,0,0,1,3,.21c1,.15,2,.34,3,.57a25.25,25.25,0,0,1,2.79.84,14.91,14.91,0,0,1,2.24,1,17.15,17.15,0,0,0-.84,2.73,21.93,21.93,0,0,0-.41,2.78h-.75a13.32,13.32,0,0,0-4.21-3.7,11.12,11.12,0,0,0-5.08-1.1,10.62,10.62,0,0,0-4.35,1,11.69,11.69,0,0,0-4,3,15.07,15.07,0,0,0-2.89,5.1,22.15,22.15,0,0,0-1.11,7.43,19.91,19.91,0,0,0,1.13,7.1,14,14,0,0,0,3,4.8,11.06,11.06,0,0,0,4.1,2.73,12.93,12.93,0,0,0,4.62.86,12.13,12.13,0,0,0,2.64-.29,17.61,17.61,0,0,0,2.65-.81,14.32,14.32,0,0,0,2.46-1.27,11.2,11.2,0,0,0,2-1.68l.7.44A23.55,23.55,0,0,0,186.71,1962.3Z"/><path class="cls-3" d="M191.24,1953.85a16.56,16.56,0,0,1,1.11-6.32,13.46,13.46,0,0,1,2.94-4.51,12.08,12.08,0,0,1,4.24-2.7,14.19,14.19,0,0,1,4.94-.89q6.32,0,9.78,3.57c2.3,2.37,3.45,5.6,3.45,9.66a17.05,17.05,0,0,1-1,5.94,13,13,0,0,1-2.73,4.51,11,11,0,0,1-4.18,2.78,15.06,15.06,0,0,1-5.35.92,18,18,0,0,1-4.78-.65,11.44,11.44,0,0,1-4.24-2.19,11.17,11.17,0,0,1-3-4A14.4,14.4,0,0,1,191.24,1953.85Zm18.47-2a18.35,18.35,0,0,0-1.19-7.37,4.06,4.06,0,0,0-3.94-2.62q-2.49,0-3.91,2.92c-1,1.94-1.44,5-1.44,9.12a30.77,30.77,0,0,0,.27,4.22,12.71,12.71,0,0,0,.9,3.37,5.65,5.65,0,0,0,1.62,2.24,3.84,3.84,0,0,0,2.51.81Q209.71,1964.54,209.71,1951.85Z"/><path class="cls-3" d="M239,1962.22a10.67,10.67,0,0,1-3.54,3.43,9.16,9.16,0,0,1-4.62,1.16,8.26,8.26,0,0,1-6.23-2.27q-2.19-2.26-2.19-7.5c0-1.84,0-3.46.11-4.86s.11-2.81.11-4.22c0-1.15,0-2.4-.08-3.75s-.12-2.71-.19-4.08c.46.08,1.06.14,1.78.19s1.47.08,2.27.08,1.54,0,2.26-.08,1.32-.11,1.79-.19a65.31,65.31,0,0,0-.49,6.75q-.11,3.84-.11,8.75a8.6,8.6,0,0,0,1.16,5,3.83,3.83,0,0,0,3.27,1.59,3.76,3.76,0,0,0,3.56-2.11,12.33,12.33,0,0,0,1.14-5.83v-2.16q0-3.28-.08-6.18c-.06-1.93-.17-3.86-.35-5.81a23.94,23.94,0,0,0,4,.27c.82,0,1.58,0,2.26-.08s1.28-.11,1.79-.19c-.18,1.95-.3,3.88-.35,5.81s-.09,4-.09,6.18v2.16q0,3.3.09,6.21c0,2,.17,3.82.35,5.62a18,18,0,0,0-1.92-.11H240.9c-.63,0-1.31,0-2,.11l.22-3.89Z"/><path class="cls-3" d="M260,1944.18a11.59,11.59,0,0,1,3.54-3.51,8.69,8.69,0,0,1,4.61-1.24,8.13,8.13,0,0,1,6.24,2.35q2.19,2.35,2.19,7.59c0,1.83,0,3.45-.11,4.86s-.11,2.81-.11,4.21c0,1.15,0,2.4.08,3.75s.12,2.66.19,3.92a12.31,12.31,0,0,0-1.78-.11h-4.54a12.31,12.31,0,0,0-1.78.11q.38-2.8.49-6.62t.1-8.72a8.48,8.48,0,0,0-1.16-5,4.1,4.1,0,0,0-6.83.51,12.5,12.5,0,0,0-1.13,5.83v2.16q0,3.3.08,6.21c.05,2,.17,3.82.35,5.62a12.06,12.06,0,0,0-1.75-.11h-4.57a13,13,0,0,0-1.78.11c.18-1.8.3-3.67.35-5.62s.08-4,.08-6.21v-2.16c0-2.19,0-4.25-.08-6.18s-.17-3.86-.35-5.81c.65.08,1.29.14,1.92.19s1.27.08,1.91.08,1.29,0,1.92-.08,1.31-.11,2-.19l-.22,4Z"/><path class="cls-3" d="M296.43,1941.86a5.43,5.43,0,0,0,.17,1.35l-4.76-.11c-.07.83-.13,1.79-.18,2.87s-.1,2.17-.11,3.29,0,2.2-.06,3.24,0,1.93,0,2.65c0,1.87,0,3.38.13,4.53a10.67,10.67,0,0,0,.46,2.65,2.16,2.16,0,0,0,.92,1.24,3.07,3.07,0,0,0,1.51.32,6.18,6.18,0,0,0,1.51-.13,4.27,4.27,0,0,0,1-.41v2.22a15.13,15.13,0,0,1-2.7.86,14.08,14.08,0,0,1-3.18.38q-6.85,0-6.86-8.21c0-1,0-2.22,0-3.53s.09-2.67.14-4,.1-2.76.13-4.11.06-2.6.06-3.75l-3.78,0a5.43,5.43,0,0,0,.16-1.35,7.38,7.38,0,0,0-.16-1.46l3.78.17c0-1.12,0-2.16-.06-3.14s-.09-2.14-.16-3.51c1.26-.5,2.5-1,3.73-1.59s2.45-1.14,3.67-1.75l.54.37c-.07.58-.13,1.26-.19,2s-.11,1.58-.16,2.43-.09,1.71-.11,2.59,0,1.72,0,2.51l4.76-.11A7.45,7.45,0,0,0,296.43,1941.86Z"/><path class="cls-3" d="M307.29,1953.2a18,18,0,0,0,.43,4,10.28,10.28,0,0,0,1.32,3.27,6.51,6.51,0,0,0,2.27,2.16,6.41,6.41,0,0,0,3.21.78,10.11,10.11,0,0,0,6.65-2.43l.64.49-1.18,3a10.73,10.73,0,0,1-3.24,1.65,16.47,16.47,0,0,1-5,.62,16.84,16.84,0,0,1-5-.73,10.7,10.7,0,0,1-4.19-2.4,11.71,11.71,0,0,1-2.86-4.24,16.14,16.14,0,0,1-1.05-6.13,17.81,17.81,0,0,1,.94-6.1,11.94,11.94,0,0,1,2.62-4.32,10.68,10.68,0,0,1,4-2.59,14,14,0,0,1,5-.87c3.57,0,6.3,1,8.19,3.13s2.83,5,2.83,8.86v1.13a2.85,2.85,0,0,1,0,.65Zm8.31-2.43a20.68,20.68,0,0,0-1-6.48c-.59-1.62-1.59-2.43-3-2.43a2.72,2.72,0,0,0-2,.81,6,6,0,0,0-1.3,2.08,14.73,14.73,0,0,0-.73,2.86,26.51,26.51,0,0,0-.29,3.16Z"/><path class="cls-3" d="M335.15,1946.83a13.61,13.61,0,0,1,3.4-5.48,7,7,0,0,1,4.76-1.76,3,3,0,0,1,.46,0,2.5,2.5,0,0,0,.4,0,14.73,14.73,0,0,0-.24,1.73c-.06.61-.08,1.33-.08,2.16v2.64a6.72,6.72,0,0,0,0,.92l-.49.43a6.41,6.41,0,0,0-1.21-.54,5.17,5.17,0,0,0-1.54-.21,4.84,4.84,0,0,0-3.83,1.59,5.47,5.47,0,0,0-1.41,3.75v2.16q0,3.3.08,6.21c.06,2,.17,3.82.35,5.62a12,12,0,0,0-1.75-.11h-4.56a13.19,13.19,0,0,0-1.79.11c.18-1.8.3-3.67.35-5.62s.09-4,.09-6.21v-2.16q0-3.28-.09-6.18c-.05-1.93-.17-3.86-.35-5.81.62.08,1.24.14,1.87.19s1.25.08,1.86.08,1.23,0,1.86-.08,1.25-.11,1.87-.19l-.17,6.59Z"/><path class="cls-3" d="M374.73,1931.66a5.73,5.73,0,0,0-4.05,1.45,4.73,4.73,0,0,0-.35,6.67,13,13,0,0,0,3.05,2.3c1.23.68,2.54,1.34,3.95,2a20.79,20.79,0,0,1,3.94,2.32,12.2,12.2,0,0,1,3.05,3.35,9.49,9.49,0,0,1,1.21,5,11.77,11.77,0,0,1-1,4.94,11,11,0,0,1-2.92,3.83,12.8,12.8,0,0,1-4.51,2.43,19.11,19.11,0,0,1-5.86.84,20.17,20.17,0,0,1-5.21-.62,10,10,0,0,1-3.48-1.54c.36-1.26.67-2.41.92-3.46s.47-2.17.65-3.4h1a7.43,7.43,0,0,0,.81,2.24,7.18,7.18,0,0,0,1.51,1.87,6.79,6.79,0,0,0,2.22,1.27,8.8,8.8,0,0,0,2.91.45,6.31,6.31,0,0,0,4.78-1.62,5.41,5.41,0,0,0,1.54-3.88,4.72,4.72,0,0,0-1.19-3.35,11.73,11.73,0,0,0-3-2.3c-1.18-.66-2.48-1.31-3.88-1.94a19.35,19.35,0,0,1-3.89-2.3,11.42,11.42,0,0,1-3-3.32,9.65,9.65,0,0,1-1.19-5.05,11.62,11.62,0,0,1,1-5,10.64,10.64,0,0,1,2.67-3.62,11.74,11.74,0,0,1,3.86-2.22,14.16,14.16,0,0,1,4.62-.75,16.68,16.68,0,0,1,5.1.7,12,12,0,0,1,3.76,1.94c-.33.83-.61,1.63-.84,2.41s-.53,1.75-.89,2.94h-.81A6.46,6.46,0,0,0,374.73,1931.66Z"/><path class="cls-3" d="M390.83,1958.82q0-5.29-.11-9.72t-.33-9c.62.08,1.25.14,1.89.19s1.28.08,1.89.08,1.24,0,1.87-.08,1.25-.11,1.86-.19q-.11.93-.24,2.19a23.42,23.42,0,0,0-.14,2.46h.11a7.81,7.81,0,0,1,7.67-5.35,10.39,10.39,0,0,1,3.94.76,8.87,8.87,0,0,1,3.35,2.37,11.94,11.94,0,0,1,2.32,4.16,18.78,18.78,0,0,1,.86,6,20.45,20.45,0,0,1-.91,6.53,13.2,13.2,0,0,1-2.41,4.41,8.3,8.3,0,0,1-3.4,2.4,11.24,11.24,0,0,1-3.91.7,9.15,9.15,0,0,1-4.22-.92,6.26,6.26,0,0,1-2.75-2.86h-.11v4.37q0,1.89,0,3.87c0,1.31,0,2.56.08,3.75s.08,2.25.13,3.18.12,1.64.19,2.11c-.46-.07-1.06-.13-1.78-.19s-1.47-.08-2.27-.08-1.54,0-2.26.08-1.32.12-1.79.19c.08-1.51.14-3,.19-4.48s.1-3,.14-4.48.06-3,.08-4.59,0-3.21,0-5Zm16.95-5.89q0-5.34-1.32-7.75a3.93,3.93,0,0,0-3.48-2.4,3.56,3.56,0,0,0-2,.59,5.38,5.38,0,0,0-1.65,1.89,12.18,12.18,0,0,0-1.16,3.41,26.57,26.57,0,0,0-.43,5.13q0,4.9,1.27,7.26a4,4,0,0,0,3.7,2.35,4.09,4.09,0,0,0,3.67-2.54Q407.78,1958.34,407.78,1952.93Z"/><path class="cls-3" d="M420.69,1943.21a17.48,17.48,0,0,1,4.88-2.81,15.13,15.13,0,0,1,5.22-1,14.91,14.91,0,0,1,4,.49,8.54,8.54,0,0,1,3.14,1.54,7,7,0,0,1,2.05,2.72,10.25,10.25,0,0,1,.73,4q0,3.46-.08,6.4c-.06,2-.08,3.92-.08,5.86a8.91,8.91,0,0,0,.18,2,2.43,2.43,0,0,0,.57,1.1,1.76,1.76,0,0,0,1,.49,8.57,8.57,0,0,0,1.43.11v1.29a27.6,27.6,0,0,1-2.64,1,8.3,8.3,0,0,1-2.33.32,5.1,5.1,0,0,1-3.24-1,6.13,6.13,0,0,1-1.89-2.81,10,10,0,0,1-2.89,2.75,7.6,7.6,0,0,1-4.13,1,10.2,10.2,0,0,1-3.51-.54,6.12,6.12,0,0,1-3.78-3.81,8.09,8.09,0,0,1-.43-2.56,7.59,7.59,0,0,1,.57-3.08,6.24,6.24,0,0,1,1.62-2.21,9.08,9.08,0,0,1,2.51-1.54,19.87,19.87,0,0,1,3.29-1.06c1.52-.36,2.71-.67,3.59-.94a8.8,8.8,0,0,0,2-.81,1.92,1.92,0,0,0,.83-.89,3.23,3.23,0,0,0,.19-1.19,4.52,4.52,0,0,0-1.38-3.32,5.11,5.11,0,0,0-3.8-1.38,7.9,7.9,0,0,0-1.89.24,10.19,10.19,0,0,0-1.87.68,11.5,11.5,0,0,0-1.62.95,4.1,4.1,0,0,0-1.1,1.1h-.38Zm12.8,14.69c0-1.55,0-2.73,0-3.54s0-1.52,0-2.13a12.84,12.84,0,0,1-2.4,1,11.74,11.74,0,0,0-2.33,1,5,5,0,0,0-1.72,1.7,5.94,5.94,0,0,0-.68,3.13,4.8,4.8,0,0,0,.84,3,2.72,2.72,0,0,0,2.24,1.06,3.56,3.56,0,0,0,2.89-1.35A6.19,6.19,0,0,0,433.49,1957.9Z"/><path class="cls-3" d="M465.37,1943.67a4.65,4.65,0,0,0-3.75-1.48,5.23,5.23,0,0,0-4.86,2.94,17.12,17.12,0,0,0-1.62,8.18q0,4.92,2.05,7.53a7.8,7.8,0,0,0,9.24,1.84,6.7,6.7,0,0,0,2.32-1.76l.65.54a11.29,11.29,0,0,0-.65,1.57l-.54,1.62a10.28,10.28,0,0,1-3,1.54,13.39,13.39,0,0,1-4.29.62,17.28,17.28,0,0,1-6.64-1.13,11.45,11.45,0,0,1-4.35-3.08,11.72,11.72,0,0,1-2.35-4.4,17.86,17.86,0,0,1-.7-4.94,14.83,14.83,0,0,1,1-5.51,12.51,12.51,0,0,1,2.86-4.38,13.32,13.32,0,0,1,4.51-2.88,15.59,15.59,0,0,1,5.88-1.06,17,17,0,0,1,5.21.7,20.8,20.8,0,0,1,4.08,1.84,14.72,14.72,0,0,0-1.21,2.65,19.22,19.22,0,0,0-.84,3h-1.3A8,8,0,0,0,465.37,1943.67Z"/><path class="cls-3" d="M481.33,1953.2a18,18,0,0,0,.43,4,10.28,10.28,0,0,0,1.32,3.27,6.51,6.51,0,0,0,2.27,2.16,6.42,6.42,0,0,0,3.22.78,10.1,10.1,0,0,0,6.64-2.43l.65.49-1.19,3a10.73,10.73,0,0,1-3.24,1.65,16.47,16.47,0,0,1-5,.62,16.88,16.88,0,0,1-5-.73,10.7,10.7,0,0,1-4.19-2.4,11.84,11.84,0,0,1-2.86-4.24,16.14,16.14,0,0,1-1.05-6.13,17.81,17.81,0,0,1,.94-6.1,12.08,12.08,0,0,1,2.62-4.32,10.68,10.68,0,0,1,4-2.59,14,14,0,0,1,5-.87c3.56,0,6.29,1,8.18,3.13s2.83,5,2.83,8.86v1.13a2.85,2.85,0,0,1-.05.65Zm8.32-2.43a21.28,21.28,0,0,0-1-6.48q-.9-2.43-3-2.43a2.72,2.72,0,0,0-2,.81,5.84,5.84,0,0,0-1.29,2.08,13.42,13.42,0,0,0-.73,2.86,26.55,26.55,0,0,0-.3,3.16Z"/></g></g></g></g></svg>